<svg xmlns="http://www.w3.org/2000/svg" viewBox="0 0 100 125" x="0px" y="0px"><title>virtual_reality_</title><g data-name="final icons"><path d="M54.11,69.1l1.7,9.32,0,.2a1.5,1.5,0,0,0,3-.54L56.94,67.94l3.33-1.36A12.94,12.94,0,0,0,67,60.17l-1.64-.11L63.72,60a9.91,9.91,0,0,1-4.58,3.84l-4.42,1.81h0L51.32,67a1.5,1.5,0,1,0,1.14,2.78Z"/><path d="M32.14,60.23l-1.55.12-1.54.14,1.41,4a8.29,8.29,0,0,1,.45,3.3L30.15,79.5a1.5,1.5,0,0,0,1.4,1.59h.1a1.5,1.5,0,0,0,1.5-1.4v-.17L33.91,68a11.29,11.29,0,0,0-.61-4.49Z"/><path d="M82.77,56.33c.12-2.06.19-4.18.19-6.33C83,25.45,74.7,6.22,64.15,6.22a8.88,8.88,0,0,0-1.51.14,11.7,11.7,0,0,0-6.46,3.79,1.49,1.49,0,0,0-.3,1.55,1.47,1.47,0,0,0,.36.57,1.5,1.5,0,0,0,2.12-.06,9.33,9.33,0,0,1,4.29-2.8,5.87,5.87,0,0,1,1.5-.2c8.3,0,15.35,17.51,15.79,38.69q0,1,0,2.09c0,.92,0,1.83,0,2.74q0,.5,0,1c0,.5,0,1-.07,1.5,0,.19,0,.37,0,.56q-.08,1.4-.2,2.77l0,.19q-.12,1.39-.28,2.75c-.06.48-.12.95-.18,1.42Q79,64,78.79,65.12c-3.68.57-8.3,1.07-14,1.42a1.5,1.5,0,0,0,.09,3h.09c4.37-.27,9-.67,13.28-1.28-.2,1-.41,1.95-.63,2.89-2.59,10.73-7,18.32-12.1,19.47a6,6,0,0,1-1.34.16c-3.3,0-6.64-3-9.41-8.32v0a1.5,1.5,0,0,0-2.67,1.38c3.36,6.52,7.54,10,12.09,10a8.64,8.64,0,0,0,1.32-.11c6.74-1,12.41-10,15.34-23q.32-1.42.59-2.91l.05-.27q.26-1.42.47-2.89.18-1.25.34-2.55.11-.9.2-1.81c0-.31.06-.62.09-.93,4.22.84,6.78,1.78,7.43,2.59a6.94,6.94,0,0,1-2.77,1.38c-.71.24-1.54.48-2.53.72-.14,1-.29,2-.45,2.91l-.05.28c4.14-.95,7.28-2.21,8.41-3.89a2.49,2.49,0,0,0,.46-1.4C93,59.29,88.7,57.53,82.77,56.33Z"/><path d="M66.47,57.33l1.52.11c3.19.24,6.07.55,8.62.89v-.18q.11-1.38.19-2.78c-2.74-.36-5.61-.63-8.4-.85l1.21-10.3a7.49,7.49,0,0,0,5.67-6.86l.16-3a7.51,7.51,0,0,0-7.08-7.9l-.73,0A21.3,21.3,0,0,0,27,35.61V40l-.95.86a5.41,5.41,0,0,0-1.77,3.83c-.16,5.17.45,8.64,1.79,10.38C16.16,56.1,7,58.11,7,61.89a2.67,2.67,0,0,0,.43,1.44c1.08,1.71,4.23,3,9.85,4.14a1.5,1.5,0,0,0,.58-2.94,39.75,39.75,0,0,1-5-1.27A7.65,7.65,0,0,1,10,61.87c1.12-1.36,7.52-3,18.08-4.09l1.54-.15,1.54-.13c5.39-.44,11.7-.71,18.81-.71,5.48,0,10.47.16,14.94.44ZM30,35.61a18.3,18.3,0,0,1,34.14-9.4l-17.59-1a7.43,7.43,0,0,0-5.42,1.9c-.15.13-.28.27-.42.41l-.09.06L30,37.25Zm42.45-1.43-.16,3a4.52,4.52,0,0,1-3.85,4.21,4.64,4.64,0,0,1-.89,0l-.63,0-5.29-.29-3-.16L46,40.26h-.22a4.55,4.55,0,0,1-4.25-4.74l0-.81.12-2.19a4.54,4.54,0,0,1,1.49-3.11l.17-.12a4.44,4.44,0,0,1,3.08-1l19.19,1,1.63.09,1,.05a4.44,4.44,0,0,1,.62.1A4.49,4.49,0,0,1,72.45,34.18ZM41.22,41.53,30,51.66,28.58,53l-.2.18c-.62-.88-1.24-3.52-1.09-8.4A2.36,2.36,0,0,1,28.07,43l.44-.4L30,41.29l8.59-7.76-.1,1.82A7.49,7.49,0,0,0,41.22,41.53ZM44.07,43a7.5,7.5,0,0,0,1.51.24h0L58.73,44l.13,4.12-3.09.29a1.5,1.5,0,0,0,.14,3H56l4.5-.42a1.5,1.5,0,0,0,1.36-1.54l-.17-5.27,4.84.26-1.16,9.92c-8-.5-14.72-.51-15.41-.51s-9.39,0-18.7.74Z"/><path d="M27.08,65.88q-1.95-.21-3.73-.45a1.5,1.5,0,0,0-.4,3q1.82.24,3.81.46h.16a1.5,1.5,0,0,0,.16-3Z"/></g></svg>