<svg xmlns="http://www.w3.org/2000/svg" xmlns:xlink="http://www.w3.org/1999/xlink" viewBox="0 0 188.56 136.89">
  <defs>
    <style>
      .cls-1 {
        fill: url(#linear-gradient);
      }

      .cls-2 {
        fill: #294200;
      }

      .cls-2, .cls-9 {
        opacity: 0.15;
        isolation: isolate;
      }

      .cls-10, .cls-11, .cls-3, .cls-4, .cls-6, .cls-7 {
        fill: none;
        stroke-linecap: round;
        stroke-linejoin: round;
      }

      .cls-3, .cls-4 {
        stroke-width: 0.87px;
      }

      .cls-3 {
        stroke: url(#linear-gradient-2);
      }

      .cls-4 {
        stroke: #c0ff4f;
      }

      .cls-5 {
        fill: url(#linear-gradient-3);
      }

      .cls-6, .cls-7 {
        stroke-width: 0.68px;
      }

      .cls-6 {
        stroke: url(#linear-gradient-4);
      }

      .cls-7 {
        stroke: #66003f;
      }

      .cls-8 {
        fill: url(#linear-gradient-5);
      }

      .cls-10, .cls-11 {
        stroke-width: 0.57px;
      }

      .cls-10 {
        stroke: url(#linear-gradient-6);
      }

      .cls-11 {
        stroke: #c70035;
      }
    </style>
    <linearGradient id="linear-gradient" x1="361.49" y1="239.63" x2="434.12" y2="239.63" gradientTransform="translate(-250.2 -198.68)" gradientUnits="userSpaceOnUse">
      <stop offset="0" stop-color="#c0ff4f"/>
      <stop offset="1" stop-color="#b1ff36"/>
    </linearGradient>
    <linearGradient id="linear-gradient-2" x1="356.86" y1="239.63" x2="438.76" y2="239.63" gradientTransform="translate(-250.2 -198.68)" gradientUnits="userSpaceOnUse">
      <stop offset="0" stop-color="#c0ff4f"/>
      <stop offset="0.44" stop-color="#bbff47"/>
      <stop offset="1" stop-color="#b1ff36"/>
    </linearGradient>
    <linearGradient id="linear-gradient-3" x1="31.2" y1="-94.11" x2="91.25" y2="-94.11" gradientTransform="translate(22.4 197.16)" gradientUnits="userSpaceOnUse">
      <stop offset="0" stop-color="#66003f"/>
      <stop offset="1" stop-color="#660026"/>
    </linearGradient>
    <linearGradient id="linear-gradient-4" x1="27.39" y1="-94.11" x2="95.06" y2="-94.11" gradientTransform="translate(22.4 197.16)" gradientUnits="userSpaceOnUse">
      <stop offset="0" stop-color="#66003f"/>
      <stop offset="0.44" stop-color="#660037"/>
      <stop offset="1" stop-color="#660026"/>
    </linearGradient>
    <linearGradient id="linear-gradient-5" x1="253.01" y1="256.46" x2="296.66" y2="256.46" gradientTransform="translate(-250.2 -198.68)" gradientUnits="userSpaceOnUse">
      <stop offset="0" stop-color="#c70035"/>
      <stop offset="1" stop-color="#c7061c"/>
    </linearGradient>
    <linearGradient id="linear-gradient-6" x1="250.2" y1="256.46" x2="299.47" y2="256.46" gradientTransform="translate(-250.2 -198.68)" gradientUnits="userSpaceOnUse">
      <stop offset="0" stop-color="#c70035"/>
      <stop offset="0.44" stop-color="#c7022d"/>
      <stop offset="1" stop-color="#c7061c"/>
    </linearGradient>
  </defs>
  <title>3Balls</title>
  <g id="Layer_2" data-name="Layer 2">
    <g id="Layer_1-2" data-name="Layer 1">
      <g>
        <g id="base">
          <circle id="gradient" class="cls-1" cx="147.61" cy="40.95" r="36.31"/>
          <circle id="screen" class="cls-2" cx="147.61" cy="40.95" r="31.94"/>
        </g>
        <g id="line">
          <path class="cls-3" d="M176.86,12.88A40.54,40.54,0,1,1,147.61.43,39.66,39.66,0,0,1,161.73,3"/>
          <path class="cls-4" d="M167.28,5.48A23.18,23.18,0,0,1,172,8.67"/>
        </g>
      </g>
      <g>
        <circle id="gradient-2" data-name="gradient" class="cls-5" cx="83.62" cy="103.05" r="30.02"/>
        <g id="line-2" data-name="line">
          <path class="cls-6" d="M107.81,79.84A33.52,33.52,0,1,1,83.62,69.55,32.79,32.79,0,0,1,95.3,71.64"/>
          <path class="cls-7" d="M99.89,73.72a19.17,19.17,0,0,1,3.89,2.64"/>
        </g>
      </g>
      <g>
        <circle id="gradient-3" data-name="gradient" class="cls-8" cx="24.63" cy="57.78" r="21.82"/>
        <circle id="screen-2" data-name="screen" class="cls-9" cx="24.63" cy="57.78" r="19.2"/>
        <g id="line-3" data-name="line">
          <path class="cls-10" d="M42.21,40.91a24.37,24.37,0,1,1-17.58-7.48,23.84,23.84,0,0,1,8.49,1.52"/>
          <path class="cls-11" d="M36.45,36.47a13.93,13.93,0,0,1,2.83,1.92"/>
        </g>
      </g>
    </g>
  </g>
</svg>
