<svg xmlns="http://www.w3.org/2000/svg" viewBox="0 0 188.56 136.89"><defs><linearGradient id="a" x1="361.49" y1="239.63" x2="434.12" y2="239.63" gradientTransform="translate(-250.2 -198.68)" gradientUnits="userSpaceOnUse"><stop offset="0" stop-color="#c0ff4f"/><stop offset="1" stop-color="#b1ff36"/></linearGradient><linearGradient id="b" x1="356.86" y1="239.63" x2="438.76" y2="239.63" gradientTransform="translate(-250.2 -198.68)" gradientUnits="userSpaceOnUse"><stop offset="0" stop-color="#c0ff4f"/><stop offset=".44" stop-color="#bbff47"/><stop offset="1" stop-color="#b1ff36"/></linearGradient><linearGradient id="c" x1="31.2" y1="-94.11" x2="91.25" y2="-94.11" gradientTransform="translate(22.4 197.16)" gradientUnits="userSpaceOnUse"><stop offset="0" stop-color="#66003f"/><stop offset="1" stop-color="#660026"/></linearGradient><linearGradient id="d" x1="27.39" y1="-94.11" x2="95.06" y2="-94.11" gradientTransform="translate(22.4 197.16)" gradientUnits="userSpaceOnUse"><stop offset="0" stop-color="#66003f"/><stop offset=".44" stop-color="#660037"/><stop offset="1" stop-color="#660026"/></linearGradient><linearGradient id="e" x1="253.01" y1="256.46" x2="296.66" y2="256.46" gradientTransform="translate(-250.2 -198.68)" gradientUnits="userSpaceOnUse"><stop offset="0" stop-color="#c70035"/><stop offset="1" stop-color="#c7061c"/></linearGradient><linearGradient id="f" x1="250.2" y1="256.46" x2="299.47" y2="256.46" gradientTransform="translate(-250.2 -198.68)" gradientUnits="userSpaceOnUse"><stop offset="0" stop-color="#c70035"/><stop offset=".44" stop-color="#c7022d"/><stop offset="1" stop-color="#c7061c"/></linearGradient></defs><g data-name="Layer 2"><g data-name="Layer 1"><circle cx="147.61" cy="40.95" r="36.31" fill="url(#a)"/><circle cx="147.61" cy="40.95" r="31.94" style="isolation:isolate" opacity=".15" fill="#294200"/><g stroke-width=".87" fill="none" stroke-linecap="round" stroke-linejoin="round"><path d="M176.86 12.88A40.54 40.54 0 1 1 147.61.43 39.66 39.66 0 0 1 161.73 3" stroke="url(#b)"/><path d="M167.28 5.48A23.18 23.18 0 0 1 172 8.67" stroke="#c0ff4f"/></g><circle data-name="gradient" cx="83.62" cy="103.05" r="30.02" fill="url(#c)"/><g data-name="line" stroke-width=".68" fill="none" stroke-linecap="round" stroke-linejoin="round"><path d="M107.81 79.84a33.52 33.52 0 1 1-24.19-10.29 32.79 32.79 0 0 1 11.68 2.09" stroke="url(#d)"/><path d="M99.89 73.72a19.17 19.17 0 0 1 3.89 2.64" stroke="#66003f"/></g><circle data-name="gradient" cx="24.63" cy="57.78" r="21.82" fill="url(#e)"/><circle data-name="screen" cx="24.63" cy="57.78" r="19.2" style="isolation:isolate" opacity=".15"/><g data-name="line" stroke-width=".57" fill="none" stroke-linecap="round" stroke-linejoin="round"><path d="M42.21 40.91a24.37 24.37 0 1 1-17.58-7.48 23.84 23.84 0 0 1 8.49 1.52" stroke="url(#f)"/><path d="M36.45 36.47a13.93 13.93 0 0 1 2.83 1.92" stroke="#c70035"/></g></g></g></svg>