<svg xmlns="http://www.w3.org/2000/svg" viewBox="0 0 436.11 80.8"><defs><style/></defs><g id="Layer_2" data-name="Layer 2"><g id="Layer_1-2" data-name="Layer 1"><path d="M37 47.6v11.08h-6.34v.07A21.77 21.77 0 0 1 22 57a22.23 22.23 0 0 1-11.84-11.81 21.77 21.77 0 0 1-1.73-8.67V8H2.1l4.76-8h7.89l-.07.07h4.83v36.45a10.58 10.58 0 0 0 .88 4.32 11.55 11.55 0 0 0 6 6 10.57 10.57 0 0 0 4.32.88v-.12z"/><path d="M33.38 11.22V.14h11.08v11.08zm0 47.4v-44h11.08v44zm21.15-.21V18.84h-6.4L53 10.95h12.47v31.62l23.74-31.62h12.72L68.74 58.41zM141 39.51a23.09 23.09 0 0 1-3 7.58 24.33 24.33 0 0 1-5.2 6.05 23.35 23.35 0 0 1-6.94 4 23.61 23.61 0 0 1-8.23 1.43 23.08 23.08 0 0 1-9.28-1.87A24 24 0 0 1 95.7 44a23.09 23.09 0 0 1-1.87-9.28 23.09 23.09 0 0 1 1.87-9.28 24 24 0 0 1 12.65-12.65 23.9 23.9 0 0 1 16.28-.79 23.79 23.79 0 0 1 6.15 3 24.52 24.52 0 0 1 5 4.52 23.28 23.28 0 0 1 3.57 5.75 14.4 14.4 0 0 1 .54 1.36l-1.09 1.84-3.94 6.32h-14.71L126 25.3a12.38 12.38 0 0 0-3.84-2.41 12.15 12.15 0 0 0-4.52-.85 12.54 12.54 0 0 0-5 1 12.68 12.68 0 0 0-6.77 6.77 13 13 0 0 0 0 9.93 12.68 12.68 0 0 0 6.77 6.77 12.51 12.51 0 0 0 5 1 12.09 12.09 0 0 0 7.17-2.24 12.94 12.94 0 0 0 4.59-5.71zm61.9.07a23.67 23.67 0 0 1-8.13 13.63 24.43 24.43 0 0 1-7 4 23.84 23.84 0 0 1-17.48-.41 23.79 23.79 0 0 1-12.68-12.68 24 24 0 0 1 0-18.56 23.79 23.79 0 0 1 12.68-12.68 23.84 23.84 0 0 1 17.48-.41 24.45 24.45 0 0 1 7 4 23.68 23.68 0 0 1 5.2 6 23.17 23.17 0 0 1 2.92 7.55h-11.55a12.72 12.72 0 0 0-4.59-5.68 12.23 12.23 0 0 0-7.17-2.21 12.53 12.53 0 0 0-5 1 12.76 12.76 0 0 0-6.77 6.73 12.27 12.27 0 0 0-1 4.93 12.51 12.51 0 0 0 1 5 12.68 12.68 0 0 0 6.77 6.77 12.51 12.51 0 0 0 5 1 12.22 12.22 0 0 0 7.17-2.21 12.66 12.66 0 0 0 4.59-5.75zm47.87-4.76a21.92 21.92 0 0 1-1.94 9.08A25 25 0 0 1 236 56.68a22.16 22.16 0 0 1-9.11 1.94 23.88 23.88 0 0 1-9.76-1.94 23.33 23.33 0 0 1-7.51-5.2 23 23 0 0 1-4.83-7.58 24.55 24.55 0 0 1-1.7-9.08 24.83 24.83 0 0 1 1.7-9.11 23 23 0 0 1 4.83-7.62 23.33 23.33 0 0 1 7.51-5.2 23.88 23.88 0 0 1 9.76-1.94 22.16 22.16 0 0 1 9.11 1.94 24.92 24.92 0 0 1 12.83 12.81 22.16 22.16 0 0 1 1.94 9.12zm-11.08 0a10.85 10.85 0 0 0-1.09-4.73 14.85 14.85 0 0 0-7-7 10.86 10.86 0 0 0-4.69-1.09 12.55 12.55 0 0 0-5.34 1.09 12.25 12.25 0 0 0-4 2.89 13 13 0 0 0-2.52 13.5 12.35 12.35 0 0 0 11.83 8 10.84 10.84 0 0 0 4.73-1.09 15 15 0 0 0 4.08-2.86 14.07 14.07 0 0 0 2.89-4.08 10.92 10.92 0 0 0 1.11-4.63z"/><path d="M315.85 30.06v28.56h-11.09V30.87a7.57 7.57 0 0 0-.65-3.09 8 8 0 0 0-4.22-4.22 7.73 7.73 0 0 0-6.19 0 8 8 0 0 0-4.22 4.22 7.57 7.57 0 0 0-.65 3.09v27.75h-11.06V30.87a7.57 7.57 0 0 0-.65-3.09 8 8 0 0 0-4.22-4.22 7.73 7.73 0 0 0-6.19 0 8 8 0 0 0-4.22 4.22 7.56 7.56 0 0 0-.65 3.09v27.75h-11.07V19h-5.57l4.8-8h11.9v2.6a18.39 18.39 0 0 1 8-1.77 18.69 18.69 0 0 1 7.48 1.5 19.27 19.27 0 0 1 6.05 4.08 19.36 19.36 0 0 1 6-4.08 19.09 19.09 0 0 1 14.57-.07 19 19 0 0 1 10.06 9.66 18.15 18.15 0 0 1 1.7 7.14zm24.55-18.91a23.3 23.3 0 0 1 9.21 1.85 23.54 23.54 0 0 1 12.61 12.6 24 24 0 0 1 0 18.43 23.63 23.63 0 0 1-5.07 7.55 24.12 24.12 0 0 1-7.55 5.1 22.92 22.92 0 0 1-9.21 1.87 23.16 23.16 0 0 1-9.25-1.87 23.58 23.58 0 0 1-7.55-5.1 24.38 24.38 0 0 1-5.06-7.58 22.93 22.93 0 0 1-1.87-9.21V3.2h11.08v11.62a22.68 22.68 0 0 1 5.92-2.72 23.47 23.47 0 0 1 6.74-.95zm0 36.31a12.35 12.35 0 0 0 4.9-1 12.76 12.76 0 0 0 6.77-6.73 12.81 12.81 0 0 0 0-9.86 12.76 12.76 0 0 0-6.77-6.73 12.73 12.73 0 0 0-9.83 0 12.86 12.86 0 0 0-6.73 6.73 12.81 12.81 0 0 0 0 9.86 12.86 12.86 0 0 0 6.73 6.73 12.27 12.27 0 0 0 4.93 1z"/><path d="M401.25 34.82a21.92 21.92 0 0 1-1.94 9.08 25 25 0 0 1-12.81 12.78 22.16 22.16 0 0 1-9.11 1.94 23.89 23.89 0 0 1-9.76-1.94 23.33 23.33 0 0 1-7.51-5.2 23 23 0 0 1-4.83-7.58 24.54 24.54 0 0 1-1.7-9.08 24.82 24.82 0 0 1 1.7-9.11 22.94 22.94 0 0 1 4.83-7.62 23.33 23.33 0 0 1 7.51-5.2 23.89 23.89 0 0 1 9.76-1.94 22.16 22.16 0 0 1 9.11 1.94 24.92 24.92 0 0 1 12.82 12.81 22.16 22.16 0 0 1 1.93 9.12zm-11.08 0a10.85 10.85 0 0 0-1.09-4.73 14.85 14.85 0 0 0-7-7 10.85 10.85 0 0 0-4.69-1.09 12.56 12.56 0 0 0-5.39 1.12 12.26 12.26 0 0 0-4 2.89 13 13 0 0 0-2.52 13.5 12.35 12.35 0 0 0 11.83 8 10.84 10.84 0 0 0 4.73-1.09 15 15 0 0 0 4.08-2.86 14.07 14.07 0 0 0 2.89-4.08 10.92 10.92 0 0 0 1.16-4.66zM0 73.8l436.11-10.5L.23 80.8l-.23-7z"/></g></g></svg>