<svg id="facebook" xmlns="http://www.w3.org/2000/svg" viewBox="0 0 50 50"><style/><g id="base_1_"><linearGradient id="gradient_1_" gradientUnits="userSpaceOnUse" x1="11.115" y1="837.427" x2="38.961" y2="804.242" gradientTransform="translate(0 -795.88)"><stop offset="0" stop-color="#554fc4"/><stop offset=".139" stop-color="#5056c3"/><stop offset="1" stop-color="#3480bf"/></linearGradient><circle id="gradient" cx="25" cy="25" r="21.6" fill="url(#gradient_1_)"/><circle id="screen" cx="25" cy="25" r="19"/><circle id="screen_1_" cx="25" cy="25" r="16"/></g><g id="line"><linearGradient id="SVGID_1_" gradientUnits="userSpaceOnUse" x1="11.096" y1="837.45" x2="38.954" y2="804.25" gradientTransform="translate(0 -795.88)"><stop offset="0" stop-color="#365592"/><stop offset=".222" stop-color="#335d9a"/><stop offset=".564" stop-color="#2a72af"/><stop offset=".979" stop-color="#1b95d2"/><stop offset="1" stop-color="#1a97d4"/></linearGradient><path d="M42.4 8.3c4.1 4.3 6.7 10.2 6.7 16.7 0 13.3-10.8 24.1-24.1 24.1S.9 38.3.9 25 11.7.9 25 .9c2.9 0 5.8.5 8.4 1.5" fill="none" stroke="url(#SVGID_1_)" stroke-linecap="round" stroke-linejoin="round" stroke-miterlimit="10"/><path d="M36.7 3.9c1 .5 2 1.2 2.8 1.9" fill="none" stroke="#218ced" stroke-linecap="round" stroke-linejoin="round" stroke-miterlimit="10"/></g><path id="f_1_" d="M27.9 37.9V26.6h3.8l.6-4.4h-4.4v-2.8c0-1.3.4-2.1 2.2-2.1h2.3v-3.9c-.4-.1-1.8-.2-3.4-.2-3.4 0-5.7 2.1-5.7 5.8v3.2h-3.8v4.4h3.8v11.3h4.6z" fill="#fff"/></svg>