<svg id="Layer_1" xmlns="http://www.w3.org/2000/svg" viewBox="0 0 50 50"><style/><g id="base_1_"><linearGradient id="gradient_1_" gradientUnits="userSpaceOnUse" x1="11.115" y1="-787.427" x2="38.961" y2="-754.242" gradientTransform="matrix(1 0 0 -1 0 -745.88)"><stop offset="0" stop-color="#fabf63"/><stop offset=".045" stop-color="#f79a55"/><stop offset=".094" stop-color="#f47849"/><stop offset=".134" stop-color="#f26341"/><stop offset=".161" stop-color="#f15c3e"/><stop offset=".226" stop-color="#ea564a"/><stop offset=".345" stop-color="#d7456a"/><stop offset=".353" stop-color="#d5446d"/><stop offset=".453" stop-color="#cc4774"/><stop offset=".618" stop-color="#b24f87"/><stop offset=".713" stop-color="#a15594"/><stop offset=".761" stop-color="#8f5b9c"/><stop offset=".857" stop-color="#7364a8"/><stop offset=".94" stop-color="#616aaf"/><stop offset="1" stop-color="#5b6cb2"/></linearGradient><circle id="gradient" cx="25" cy="25" r="21.6" fill="url(#gradient_1_)"/><circle id="screen" cx="25" cy="25" r="19" opacity=".15"/></g><g id="icon_1_"><path d="M30.2 14h-10c-3.2 0-5.9 2.7-5.9 5.9V30c0 3.2 2.7 5.9 5.9 5.9h10.1c3.2 0 5.9-2.7 5.8-6v-10c0-3.2-2.7-5.9-5.9-5.9zm4 15.9c0 2.3-1.8 4.1-4.1 4.1h-10c-2.3 0-4.1-1.8-4.1-4.1v-10c0-2.3 1.8-4.1 4.1-4.1h10c2.3 0 4.1 1.8 4.1 4.1v10z"/><path d="M25.2 19.4c-3 0-5.6 2.5-5.6 5.6s2.5 5.6 5.6 5.6 5.6-2.5 5.6-5.6-2.5-5.6-5.6-5.6zm0 9.2c-2 0-3.6-1.6-3.6-3.6s1.6-3.6 3.6-3.6 3.6 1.6 3.6 3.6-1.6 3.6-3.6 3.6z"/><circle cx="31" cy="19.2" r="1.3"/></g><g id="line"><linearGradient id="SVGID_1_" gradientUnits="userSpaceOnUse" x1="11.096" y1="-787.45" x2="38.954" y2="-754.25" gradientTransform="matrix(1 0 0 -1 0 -745.88)"><stop offset="0" stop-color="#fabf63"/><stop offset=".045" stop-color="#f79a55"/><stop offset=".094" stop-color="#f47849"/><stop offset=".134" stop-color="#f26341"/><stop offset=".161" stop-color="#f15c3e"/><stop offset=".226" stop-color="#ea564a"/><stop offset=".345" stop-color="#d7456a"/><stop offset=".353" stop-color="#d5446d"/><stop offset=".453" stop-color="#cc4774"/><stop offset=".618" stop-color="#b24f87"/><stop offset=".713" stop-color="#a15594"/><stop offset=".761" stop-color="#8f5b9c"/><stop offset=".857" stop-color="#7364a8"/><stop offset=".94" stop-color="#616aaf"/><stop offset="1" stop-color="#5b6cb2"/></linearGradient><path d="M42.4 8.3c4.1 4.3 6.7 10.2 6.7 16.7 0 13.3-10.8 24.1-24.1 24.1S.9 38.3.9 25 11.7.9 25 .9c2.9 0 5.8.5 8.4 1.5" fill="none" stroke="url(#SVGID_1_)" stroke-linecap="round" stroke-linejoin="round" stroke-miterlimit="10"/><path d="M36.7 3.9c1 .5 2 1.2 2.8 1.9" fill="none" stroke="#5b6cb2" stroke-linecap="round" stroke-linejoin="round" stroke-miterlimit="10"/></g></svg>