<svg id="Layer_1" xmlns="http://www.w3.org/2000/svg" viewBox="0 0 50 50"><style/><linearGradient id="greendient" gradientUnits="userSpaceOnUse" x1="3.4" y1="25" x2="46.6" y2="25"><stop offset="0" stop-color="#7aaf22"/><stop offset="1" stop-color="#a3e337"/></linearGradient><g id="base_2_"><circle id="gradient_3_" cx="25" cy="25" r="21.6" fill="url(#greendient)"/><circle id="screen_2_" cx="25" cy="25" r="19" opacity=".15"/></g><g id="line_3_" fill="none" stroke-linecap="round" stroke-linejoin="round" stroke-miterlimit="10"><path d="M42.4 8.3c4.1 4.3 6.7 10.2 6.7 16.7 0 13.3-10.8 24.1-24.1 24.1S.9 38.3.9 25 11.7.9 25 .9c2.9 0 5.8.5 8.4 1.5" stroke="url(#greendient)"/><path d="M36.7 3.9c1 .5 2 1.2 2.8 1.9" stroke="#a3e337"/></g><g id="icon"><path d="M25 21.8c2 0 3.5-1.6 3.5-3.6s-1.6-3.6-3.5-3.6c-2 0-3.5 1.6-3.5 3.6s1.5 3.6 3.5 3.6zm0-6.5c1.5 0 2.7 1.3 2.7 2.8 0 1.6-1.2 2.8-2.7 2.8-1.5 0-2.7-1.3-2.7-2.8 0-1.5 1.2-2.8 2.7-2.8z"/><path d="M31.3 12.1H18.7c-1.1 0-2 .9-2 2v21.8c0 1.1.9 2 2 2h12.6c1.1 0 2-.9 2-2V14.1c-.1-1.1-.9-2-2-2zm1.2 23.8c0 .7-.5 1.2-1.2 1.2H18.7c-.7 0-1.2-.5-1.2-1.2V14.1c0-.7.5-1.2 1.2-1.2h12.6c.7 0 1.2.5 1.2 1.2v21.8z"/><path d="M25 19.4c.7 0 1.2-.5 1.2-1.2S25.7 17 25 17s-1.2.5-1.2 1.2c0 .6.5 1.2 1.2 1.2zm0-2.1c.4 0 .8.4.8.8s-.4.9-.8.9-.8-.4-.8-.8.4-.9.8-.9zm5.7 18.6H19.3c-.1 0-.2.1-.2.2s.1.2.2.2h11.4c.1 0 .2-.1.2-.2s-.1-.2-.2-.2zM25 22.6c-3.3 0-5.9 2.7-5.9 6s2.6 6 5.9 6 5.9-2.7 5.9-6-2.6-6-5.9-6zm0 11.3c-2.8 0-5.1-2.4-5.1-5.2 0-2.9 2.3-5.2 5.1-5.2s5.1 2.4 5.1 5.2c0 2.8-2.3 5.2-5.1 5.2z"/><ellipse cx="30.5" cy="14.9" rx=".4" ry=".4"/><path d="M25 26.2c-1.3 0-2.4 1.1-2.4 2.4 0 1.3 1.1 2.4 2.4 2.4 1.3 0 2.4-1.1 2.4-2.4 0-1.3-1.1-2.4-2.4-2.4zm0 4.5c-1.1 0-2-.9-2-2s.9-2 2-2 2 .9 2 2c0 1-.9 2-2 2z"/></g></svg>