<svg id="Layer_1" xmlns="http://www.w3.org/2000/svg" viewBox="0 0 50 50"><style/><linearGradient id="gradient_1_" gradientUnits="userSpaceOnUse" x1="3.4" y1="25" x2="46.6" y2="25" gradientTransform="matrix(1 0 0 -1 0 50)"><stop offset="0" stop-color="#66003f"/><stop offset="1" stop-color="#660026"/></linearGradient><circle id="gradient" cx="25" cy="25" r="21.6" fill="url(#gradient_1_)"/><g id="line"><linearGradient id="SVGID_1_" gradientUnits="userSpaceOnUse" x1=".4" y1="25" x2="49.6" y2="25" gradientTransform="matrix(1 0 0 -1 0 50)"><stop offset="0" stop-color="#66003f"/><stop offset=".44" stop-color="#660037"/><stop offset="1" stop-color="#660026"/></linearGradient><path d="M42.4 8.3c4.1 4.3 6.7 10.2 6.7 16.7 0 13.3-10.8 24.1-24.1 24.1S.9 38.3.9 25 11.7.9 25 .9c2.9 0 5.8.5 8.4 1.5" fill="none" stroke="url(#SVGID_1_)" stroke-linecap="round" stroke-linejoin="round" stroke-miterlimit="10"/><path d="M36.7 3.9c1 .5 2 1.2 2.8 1.9" fill="none" stroke="#66003f" stroke-linecap="round" stroke-linejoin="round" stroke-miterlimit="10"/></g><g id="icon"><path d="M33.9 15.9c-2.3-2.3-5.4-3.8-8.9-3.8s-6.6 1.4-8.9 3.8c-2.3 2.3-3.7 5.6-3.7 9.1 0 3.6 1.4 6.8 3.7 9.1 2.3 2.3 5.4 3.8 8.9 3.8s6.6-1.4 8.9-3.8c2.3-2.3 3.7-5.6 3.7-9.1 0-3.6-1.5-6.8-3.7-9.1zm2.8 9.7v.3c-.4 6-5.1 10.8-10.9 11.2h-.4V35h-.8v2.1h-.4c-5.8-.4-10.5-5.2-10.9-11.2v-.4h2.1v-.8h-2.1v-.4c.4-6 5.1-10.8 10.9-11.2h.4v2.1h.8v-2.1h.4c5.8.4 10.5 5.2 10.9 11.2v.4h-2.1v.8h2.1v.1z"/><path d="M19.9 27.4c.9-.6 1.9-1 2.7-1.2l.2-.1.2-.1c.1 0 .2-.1.3-.1-.7-1.1-1.1-2.7-1.1-4.1 0-1.1.3-1.9.8-2.5-.2 0-.4-.1-.6-.1-1.1 0-1.6.5-1.6 1.7 0 1 .4 2.2.9 2.8l.1.1v.3c0 .2-.1.4-.3.6-.2.1-.4.2-.6.2l-.4.1c-.6.2-1.2.4-1.7.8-.2.2-.4.5-.6.9-.2.3-.2.6-.2 1h1.5c.1-.2.3-.3.4-.3zm11.4-1.6c-.5-.4-1.2-.6-1.8-.8l-.2-.1c-.2-.1-.4-.1-.6-.2-.2-.1-.3-.4-.3-.6v-.4l.1-.1c.5-.7.8-1.8.8-2.7 0-1.2-.5-1.7-1.6-1.7-.2 0-.4 0-.6.1.5.6.8 1.5.8 2.5 0 1.4-.4 2.9-1.1 4 .1.1.2.1.4.2l.3.1c.8.3 1.8.6 2.7 1.3h.1c.1.1.2.1.3.3H32c0-.4-.1-.7-.2-1-.1-.4-.3-.8-.5-.9z"/><path d="M29.9 28.3c-.7-.5-1.5-.8-2.4-1l-.3-.1c-.2-.1-.5-.2-.7-.3-.3-.2-.4-.5-.5-.8v-.6c.6-.9 1.1-2.4 1.1-3.6 0-.8-.2-1.3-.5-1.7-.3-.4-.9-.5-1.6-.5-.7 0-1.3.2-1.6.5-.3.4-.5.9-.5 1.7 0 1.3.5 2.9 1.1 3.7l.1.1v.3c-.1.2-.1.6-.5.8-.3.2-.5.2-.7.3l-.4.1c-.8.3-1.6.6-2.3 1-.4.3-.6.9-.8 1.2-.1.3-.2.8-.2 1.2h11.6c0-.4-.1-.9-.2-1.2-.1-.2-.3-.8-.7-1.1z"/></g></svg>