<svg id="Layer_1" xmlns="http://www.w3.org/2000/svg" viewBox="0 0 50 50"><style/><linearGradient id="gradient_2_" gradientUnits="userSpaceOnUse" x1="276" y1="-370.84" x2="319.2" y2="-370.84" gradientTransform="matrix(1 0 0 -1 -272.6 -345.84)"><stop offset="0" stop-color="#c70035"/><stop offset="1" stop-color="#c7061c"/></linearGradient><circle id="gradient_1_" cx="25" cy="25" r="21.6" fill="url(#gradient_2_)"/><circle id="screen_3_" cx="25" cy="25" r="19" opacity=".15"/><g id="line_1_"><linearGradient id="SVGID_1_" gradientUnits="userSpaceOnUse" x1="273" y1="-370.84" x2="322.2" y2="-370.84" gradientTransform="matrix(1 0 0 -1 -272.6 -345.84)"><stop offset="0" stop-color="#c70035"/><stop offset=".44" stop-color="#c7022d"/><stop offset="1" stop-color="#c7061c"/></linearGradient><path d="M42.4 8.3c4.1 4.3 6.7 10.2 6.7 16.7 0 13.3-10.8 24.1-24.1 24.1S.9 38.3.9 25 11.7.9 25 .9c2.9 0 5.8.5 8.4 1.5" fill="none" stroke="url(#SVGID_1_)" stroke-linecap="round" stroke-linejoin="round" stroke-miterlimit="10"/><path d="M36.7 3.9c1 .5 2 1.2 2.8 1.9" fill="none" stroke="#c70035" stroke-linecap="round" stroke-linejoin="round" stroke-miterlimit="10"/></g><g id="icon_1_"><path d="M35.5 19.8h-1.7v-2.7c0-.3-.2-.5-.5-.5H16.7c-.3 0-.5.2-.5.5v2.7h-1.7c-.3 0-.5.2-.5.5v12.6c0 .3.2.5.5.5h8.2c.2 0 .5-.2.5-.5l.4-3.4c.1-.7.7-1.3 1.4-1.3s1.3.5 1.4 1.3l.4 3.4c0 .3.2.5.5.5h8.2c.3 0 .5-.2.5-.5V20.3c0-.3-.2-.5-.5-.5zm-18.3-1.9v-.2h15.6v2.2H17.2v-2zM35 32.4h-7.2l-.4-3c-.1-1.2-1.2-2.2-2.4-2.2s-2.2.9-2.4 2.2l-.4 3H15V20.9h20v11.5z"/><path d="M19.5 22.1c-1.8 0-3.3 1.5-3.3 3.4s1.5 3.4 3.3 3.4c1.8 0 3.3-1.5 3.3-3.4 0-1.8-1.5-3.4-3.3-3.4zm0 5.8c-1.3 0-2.3-1.1-2.3-2.4 0-1.3 1-2.4 2.3-2.4 1.3 0 2.3 1.1 2.3 2.4 0 1.3-1 2.4-2.3 2.4zm11 1c1.8 0 3.3-1.5 3.3-3.4s-1.5-3.4-3.3-3.4c-1.8 0-3.3 1.5-3.3 3.4s1.5 3.4 3.3 3.4zm0-5.7c1.3 0 2.3 1.1 2.3 2.4 0 1.3-1 2.4-2.3 2.4-1.3 0-2.3-1.1-2.3-2.4 0-1.4 1-2.4 2.3-2.4z"/></g></svg>