<svg viewBox="0 0 90 90" xmlns="http://www.w3.org/2000/svg"><path d="M70.9 65.8H66v-2.9c0-1.3 1-2.3 2.3-2.3h.3c1.3 0 2.3 1 2.3 2.3v2.9zm-18.5-6.1c-1.3 0-2.3.8-2.3 1.9v14c0 1 1 1.9 2.3 1.9 1.3 0 2.3-.8 2.3-1.9v-14c0-1.1-1-1.9-2.3-1.9zm30.1-7.8v26.5C82.5 84.8 77 90 70.2 90H19.8C13 90 7.5 84.8 7.5 78.4V51.9c0-6.4 5.5-11.6 12.3-11.6h50.5c6.7 0 12.2 5.2 12.2 11.6zM23.1 81.3v-28h6.3v-4.1H12.7v4.1h5.2v28h5.2zm18.8-23.8h-5.2v14.9c0 2.2.1 3.2 0 3.6-.4 1.2-2.3 2.4-3.1.1-.1-.4 0-1.6 0-3.6v-15h-5.2v14.8c0 2.3-.1 4 0 4.7.1 1.4.1 2.9 1.3 3.8 2.3 1.7 6.8-.3 8-2.7v3.1h4.2V57.5zm16.7 17.1V62.2c0-4.7-3.5-7.6-8.4-3.7v-9.2H45v31.9l4.3-.1.4-2c5.4 5 8.9 1.5 8.9-4.5zM74.9 73H71v2.7c0 1.2-1 2.1-2.1 2.1h-.8c-1.2 0-2.1-1-2.1-2.1V70h9v-3.4c0-2.5-.1-4.9-.3-6.3-.6-4.5-6.9-5.2-10.1-2.9-1 .7-1.7 1.7-2.2 2.9-.4 1.3-.7 3-.7 5.3V73c0 12.3 15 10.6 13.2 0zM54.8 32.7c.3.7.7 1.2 1.3 1.6.6.4 1.3.6 2.1.6s1.4-.2 2-.6c.6-.4 1.1-1 1.5-1.9l-.1 2h5.8V9.7h-4.6V29c0 1-.9 1.9-1.9 1.9-1 0-1.9-.9-1.9-1.9V9.7h-4.8v16.7c0 2.1 0 3.5.1 4.3.1.7.3 1.4.5 2zM37.2 18.8c0-2.4.2-4.2.6-5.6.4-1.3 1.1-2.4 2.1-3.2 1-.8 2.3-1.2 3.9-1.2 1.3 0 2.5.3 3.5.8s1.7 1.2 2.2 2c.5.8.9 1.7 1.1 2.6.2.9.3 2.2.3 4v6.3c0 2.3-.1 4-.3 5.1-.2 1.1-.6 2.1-1.1 3-.6.9-1.3 1.6-2.2 2.1-.9.4-2 .7-3.2.7-1.3 0-2.4-.2-3.4-.6-.9-.4-1.6-1-2.1-1.7-.5-.8-.9-1.7-1.1-2.8-.2-1.1-.3-2.7-.3-4.9v-6.6zm4.6 9.8c0 1.4 1 2.5 2.3 2.5 1.3 0 2.3-1.1 2.3-2.5V15.4c0-1.4-1-2.5-2.3-2.5-1.3 0-2.3 1.1-2.3 2.5v13.2zm-16.1 6.6h5.5v-19L37.7 0h-6l-3.4 12.1L24.7 0h-5.9l6.9 16.3v18.9z"/></svg>