<svg xmlns="http://www.w3.org/2000/svg" xmlns:xlink="http://www.w3.org/1999/xlink" version="1.1" x="0px" y="0px" viewBox="0 0 100 125"
    style="enable-background:new 0 0 100 100;" xml:space="preserve">
	<style type="text/css">
		.svg-fill {
			fill: none;
		}
	</style>
	<path class="svg-fill" d="M46.1,22.6c-3.5,0-6.3,2.8-6.3,6.3c0,3.5,2.8,6.3,6.3,6.3s6.3-2.8,6.3-6.3C52.4,25.5,49.6,22.6,46.1,22.6z   M46.1,30.8c-1,0-1.8-0.8-1.8-1.8c0-1,0.8-1.8,1.8-1.8s1.8,0.8,1.8,1.8C47.9,30,47.1,30.8,46.1,30.8z"
	/>
	<path class="svg-fill" d="M46.1,12.6c-9,0-16.4,7.3-16.4,16.4c0,9,7.3,16.4,16.4,16.4S62.5,38,62.5,29C62.5,19.9,55.1,12.6,46.1,12.6z   M46.1,43.7c-8.1,0-14.7-6.6-14.7-14.7c0-8.1,6.6-14.7,14.7-14.7S60.8,20.9,60.8,29C60.8,37.1,54.2,43.7,46.1,43.7z"
	/>
	<circle class="svg-fill" cx="46.1" cy="29" r="16.4" />
	<path fill="white" d="M46.1,9.9c-10.3,0-18.8,8.5-18.8,18.8v36.6c0,10.3,8.5,18.8,18.8,18.8s18.8-8.5,18.8-18.8V28.8C64.9,18.4,56.4,9.9,46.1,9.9  z M62.1,65.4c0,8.8-7.2,16-16,16s-16-7.2-16-16V39.6c3.4,5.2,9.3,8.6,16,8.6s12.5-3.4,16-8.6V65.4z M46.1,45.3  c-9,0-16.4-7.3-16.4-16.4c0-9,7.3-16.4,16.4-16.4S62.5,19.9,62.5,29C62.5,38,55.1,45.3,46.1,45.3z"
	/>
	<path fill="white" d="M46.1,14.3c-8.1,0-14.7,6.6-14.7,14.7c0,8.1,6.6,14.7,14.7,14.7S60.8,37.1,60.8,29C60.8,20.9,54.2,14.3,46.1,14.3z M46.1,35.3c-3.5,0-6.3-2.8-6.3-6.3c0-3.5,2.8-6.3,6.3-6.3s6.3,2.8,6.3,6.3C52.4,32.5,49.6,35.3,46.1,35.3z"
	/>
	<circle fill="white" cx="46.1" cy="29" r="1.8" />
	<path fill="white" d="M49.1,72.5h-6c-0.3,0-0.6,0.3-0.6,0.6c0,0.3,0.3,0.6,0.6,0.6h6c0.3,0,0.6-0.3,0.6-0.6C49.7,72.7,49.4,72.5,49.1,72.5z"
	/>
	<path fill="white" d="M49.3,67.7h-6.3c-2.9,0-5.3,2.4-5.3,5.3s2.4,5.3,5.3,5.3h6.3c2.9,0,5.3-2.4,5.3-5.3S52.2,67.7,49.3,67.7z M49.3,75.5h-6.3  c-1.4,0-2.5-1.1-2.5-2.5c0-1.4,1.1-2.5,2.5-2.5h6.3c1.4,0,2.5,1.1,2.5,2.5C51.7,74.4,50.6,75.5,49.3,75.5z"
	/>
</svg>