<?xml version="1.0" encoding="utf-8"?>
<!-- Generator: Adobe Illustrator 21.1.0, SVG Export Plug-In . SVG Version: 6.00 Build 0)  -->
<svg version="1.1" id="Layer_1" xmlns="http://www.w3.org/2000/svg" xmlns:xlink="http://www.w3.org/1999/xlink" x="0px" y="0px"
	 viewBox="0 0 50 50" style="enable-background:new 0 0 50 50;" xml:space="preserve">
<style type="text/css">
	  .st4{fill:#FFFFFF;}
</style>
<g id="icon_1_">
	<path class="st4" d="M35.5,19.8h-1.7v-2.7c0-0.3-0.2-0.5-0.5-0.5H16.7c-0.3,0-0.5,0.2-0.5,0.5v2.7h-1.7c-0.3,0-0.5,0.2-0.5,0.5
		v12.6c0,0.3,0.2,0.5,0.5,0.5h8.2c0.2,0,0.5-0.2,0.5-0.5l0,0l0.4-3.4c0.1-0.7,0.7-1.3,1.4-1.3c0.7,0,1.3,0.5,1.4,1.3l0,0l0.4,3.4
		l0,0c0,0.3,0.2,0.5,0.5,0.5h8.2c0.3,0,0.5-0.2,0.5-0.5V20.3l0,0l0,0C36,20,35.8,19.8,35.5,19.8z M17.2,17.9v-0.2h15.6v2.2H17.2
		V17.9z M35,32.4h-0.2h0h-7l-0.4-3l0,0c-0.1-1.2-1.2-2.2-2.4-2.2c-1.2,0-2.2,0.9-2.4,2.2l-0.4,3H15V20.9h20V32.4z"/>
	<path class="st4" d="M19.5,22.1c-1.8,0-3.3,1.5-3.3,3.4c0,1.9,1.5,3.4,3.3,3.4c1.8,0,3.3-1.5,3.3-3.4
		C22.8,23.7,21.3,22.1,19.5,22.1z M19.5,27.9c-1.3,0-2.3-1.1-2.3-2.4c0-1.3,1-2.4,2.3-2.4c1.3,0,2.3,1.1,2.3,2.4
		C21.8,26.8,20.8,27.9,19.5,27.9z"/>
	<path class="st4" d="M30.5,28.9c1.8,0,3.3-1.5,3.3-3.4c0-1.9-1.5-3.4-3.3-3.4c-1.8,0-3.3,1.5-3.3,3.4
		C27.2,27.4,28.7,28.9,30.5,28.9z M30.5,23.2c1.3,0,2.3,1.1,2.3,2.4v0v0v0c0,1.3-1,2.4-2.3,2.4c-1.3,0-2.3-1.1-2.3-2.4
		C28.2,24.2,29.2,23.2,30.5,23.2z"/>
</g>
</svg>