<?xml version="1.0" encoding="utf-8"?>
<svg version="1.1" id="Layer_1" xmlns="http://www.w3.org/2000/svg" xmlns:xlink="http://www.w3.org/1999/xlink" x="0px" y="0px"
	 viewBox="0 0 1024 619" style="enable-background:new 0 0 1024 619;" xml:space="preserve">
<style type="text/css">
	.st0{fill:#A1CD3A;}
	.st1{fill:#FFFFFF;}
</style>
<path class="st0" d="M789.1,536.1c-51.5,0-94.3-41.9-94.3-94.3c0-51.5,42.8-94.3,94.3-94.3c52.4,0,95.2,42.8,95.2,94.3
	C884.3,494.1,841.5,536.1,789.1,536.1z M789.1,536.1L789.1,536.1L789.1,536.1z M963.8,441.8c0-96-77.7-173.7-174.6-173.7
	c-96,0-173.7,77.7-173.7,173.7c0,96.9,77.7,174.6,173.7,174.6C886.1,616.4,963.8,538.7,963.8,441.8z"/>
<path class="st0" d="M789.1,268.9c-51.5,0-94.3-41.9-94.3-94.3s42.8-95.2,94.3-95.2c52.4,0,95.2,42.8,95.2,95.2
	S841.5,268.9,789.1,268.9z M789.1,268.9L789.1,268.9L789.1,268.9z M963.8,174.6C963.8,77.7,886.1,0,789.1,0
	c-96,0-173.7,77.7-173.7,174.6c0,96,77.7,173.7,173.7,173.7C886.1,348.3,963.8,270.6,963.8,174.6z"/>
<g>
	<rect x="229.5" y="186" class="st1" width="82.1" height="82"/>
	<polygon class="st1" points="642.5,266.3 467,499.4 467,266.3 374.5,266.3 338.7,323.9 385.8,323.9 385.8,617.3 490.6,617.3 
		735.9,266.3 	"/>
	<path class="st1" d="M229.5,537h-20.1v0.9c-11.3,0-21.8-2.6-32.3-7c-9.6-4.4-18.3-10.5-26.2-17.5c-7-7.9-13.1-16.6-17.5-26.2
		c-4.4-10.5-6.1-21-6.1-32.3V312.6V186H91.5v-0.9H33l-34,58.5h46.4v211.3c0,22.7,4.4,44.5,13.1,64.6c7.8,20.1,20.1,36.7,34.9,51.5
		c14.9,15.7,32.3,27.1,52.4,35.8c19.2,8.7,41,12.2,63.7,12.2h47.1v-0.9h55V293.3h-82.1V537z"/>
</g>
<path class="st1" d="M1024,476.7c-3.5,21-11.3,39.3-21.8,56.7c-10.5,17.5-22.7,32.3-38.4,44.5c-14.8,12.2-32.3,22.7-51.5,29.7
	c-18.3,7-39.3,10.5-60.2,10.5c-24.4,0-48-4.4-69-14s-40.2-21.8-55.9-37.5s-28.8-34.9-37.5-55.9c-9.6-21.8-14-44.5-14-69
	c0-24.4,4.4-47.1,14-68.1c8.7-21.8,21.8-40.2,37.5-55.9c15.7-16.6,34.9-28.8,55.9-38.4c21-8.7,44.5-13.1,69-13.1
	c17.5,0,34.9,2.6,51.5,7.9c16.6,5.2,31.4,12.2,45.4,21.8c14,8.7,26.2,20.1,37.5,33.2c10.5,13.1,19.2,27.1,26.2,42.8
	c1.7,3.5,3.5,7,4.4,9.6l-8.7,14l-28.8,46.3H870.3l42.8-69.8c-7.9-7.9-17.5-13.1-27.9-17.5c-10.5-4.4-21.8-7-33.2-7
	c-13.1,0-25.3,2.6-36.7,7.9c-11.3,5.2-21.8,11.3-29.7,20.1c-8.7,8.7-15.7,18.3-20.1,29.7c-5.2,11.3-7.9,23.6-7.9,36.7
	s2.6,25.3,7.9,36.7c4.4,11.3,11.3,21.8,20.1,29.7c7.9,8.7,18.3,15.7,29.7,20.1c11.3,5.2,23.6,7.9,36.7,7.9
	c19.2,0,37.5-5.2,52.4-16.6c15.7-11.3,27.1-25.3,34.1-42.8h85.5V476.7z"/>
</svg>
