<?xml version="1.0" encoding="utf-8"?>
<svg version="1.1" xmlns="http://www.w3.org/2000/svg" xmlns:xlink="http://www.w3.org/1999/xlink" x="0px" y="0px"
	 viewBox="0 0 1037.9 786.6" style="enable-background:new 0 0 1037.9 786.6;" xml:space="preserve">
<style>
.st1{
	fill-rule:evenodd;
	clip-rule:evenodd;
	fill: #ADCB4A;
}
</style>
<g>
	<path fill="white" d="M73.3,743.3c-4.8,5.3-11.5,7.9-20.1,7.9c-9.3,0-16.5-3.5-21.4-10.6v9.5h-5.5v-73.5h5.5v28.7
		c4.7-6.9,11.9-10.3,21.5-10.3c8.7,0,15.4,2.7,20.1,8.2c4.5,5.1,6.7,11.8,6.7,20.2C80.1,731.7,77.8,738.4,73.3,743.3z M69.5,706.8
		c-3.7-4.4-8.9-6.6-15.8-6.6c-7.4,0-12.9,2.2-16.7,6.5c-3.5,4-5.3,9.7-5.3,16.9c0,6.7,2,12.1,6.1,16.2c4,4.2,9.4,6.2,16,6.2
		c6.7,0,11.9-2.2,15.7-6.6c3.5-4.1,5.2-9.5,5.2-16.2C74.7,716.5,72.9,711,69.5,706.8z"/>
	<path fill="white" d="M89.2,725.6c0.7,13.7,8,20.6,21.8,20.6c10.5,0,17.4-4.3,20.7-12.9h5.6c-2.1,6.8-5.7,11.6-10.7,14.3
		c-4.4,2.5-9.7,3.7-15.8,3.7c-8.9,0-15.7-2.6-20.3-7.7c-4.4-4.8-6.6-11.4-6.6-19.8c0-8.3,2.5-15,7.5-20.2c5-5.1,11.7-7.7,20-7.7
		c8.3,0,14.9,2.3,19.9,7c5,4.7,7.5,10.9,7.5,18.8v3.8L89.2,725.6z M111.3,701c-6.1,0-11.2,1.7-15.1,5.2c-3.9,3.5-6.2,8.2-6.9,14.3
		h43.3c-0.4-6.1-2.5-10.8-6.3-14.3C122.4,702.7,117.4,701,111.3,701z"/>
	<path fill="white" d="M154.3,698.4v3.5h12v5.2h-12v43.2h-5.5v-43.2H141v-5.2h7.8v-3.5c0-13.7,9.2-20.5,27.5-20.5v5
		C161.7,682.9,154.3,688,154.3,698.4z"/>
	<path fill="white" d="M197.7,751.3c-8.6,0-15.4-2.6-20.4-7.7c-5-5.1-7.5-11.8-7.5-20c0-8.5,2.6-15.2,7.7-20.2c5.2-5,12-7.5,20.4-7.5
		s15.2,2.5,20.3,7.5c5.1,5,7.6,11.8,7.6,20.2s-2.6,15.2-7.7,20.2C213,748.8,206.2,751.3,197.7,751.3z M214.4,707.2
		c-4-4.2-9.5-6.2-16.6-6.2c-6.9,0-12.4,2-16.5,6.1c-4,4.1-6.1,9.6-6.1,16.5c0,6.9,2,12.3,6.1,16.4c4.1,4.1,9.5,6.1,16.4,6.1
		c6.9,0,12.3-2,16.4-6.1c4.1-4.1,6.1-9.6,6.1-16.4C220.3,716.9,218.4,711.4,214.4,707.2z"/>
	<path fill="white" d="M242.2,709.7c-3.2,5-4.8,11.4-4.8,19.2v21.3h-5.5v-53h5.5v9c1.1-1.6,2.5-3.1,4.1-4.4
		c4.8-3.8,11.1-5.7,18.9-5.7v5.1C252.1,701,246,703.9,242.2,709.7z"/>
	<path fill="white" d="M268.3,725.6c0.7,13.7,8,20.6,21.8,20.6c10.5,0,17.4-4.3,20.7-12.9h5.6c-2.1,6.8-5.7,11.6-10.7,14.3
		c-4.4,2.5-9.7,3.7-15.8,3.7c-8.9,0-15.7-2.6-20.3-7.7c-4.4-4.8-6.6-11.4-6.6-19.8c0-8.3,2.5-15,7.5-20.2c5-5.1,11.7-7.7,20-7.7
		c8.3,0,14.9,2.3,19.9,7c5,4.7,7.5,10.9,7.5,18.8v3.8L268.3,725.6z M290.4,701c-6.1,0-11.2,1.7-15.1,5.2c-3.9,3.5-6.2,8.2-6.9,14.3
		h43.3c-0.4-6.1-2.5-10.8-6.3-14.3C301.5,702.7,296.5,701,290.4,701z"/>
	<path fill="white" d="M333.1,758.1c-0.4,1.2-1.3,1.8-2.7,1.8c-1.9,0-2.8-0.8-2.8-2.3c0-0.2,0.1-0.5,0.2-0.9l4.7-14.3
		c0.4-1.5,1.5-2.1,3.2-1.7c1.4,0.4,2.2,1.1,2.2,2.3c0,0.2-0.1,0.5-0.2,0.8L333.1,758.1z"/>
	<path fill="white" d="M435.3,750.1v-9.5c-4.8,7.2-12.2,10.7-22,10.7c-8.4,0-15-2.7-19.8-8.1c-4.5-5.1-6.8-11.8-6.8-19.8
		c0-8.2,2.3-14.9,6.9-20.1c4.8-5.4,11.5-8.1,20.1-8.1c9.7,0,16.8,3.4,21.5,10.3v-28.9h5.5v73.5H435.3z M429.8,706.6
		c-3.9-4.3-9.4-6.4-16.6-6.4c-6.6,0-11.9,2.3-15.7,6.8c-3.6,4.3-5.4,9.7-5.4,16.3c0,6.7,1.8,12,5.3,16.2c3.8,4.5,9,6.7,15.8,6.7
		c6.7,0,12.1-2.2,16.1-6.7c4-4.3,6-9.7,6-16.2C435.3,716.2,433.4,710.7,429.8,706.6z"/>
	<path fill="white" d="M492.6,750.2v-7.4c-4.3,5.6-10.7,8.5-19.4,8.5c-6.8,0-12.2-1.6-16.1-4.9c-4.2-3.5-6.3-8.5-6.3-14.9v-34.4h5.5
		v34.3c0,9.8,5.6,14.8,16.9,14.8c6.5,0,11.4-1.9,14.7-5.6c3.1-3.5,4.7-8.5,4.7-14.8v-28.6h5.5v53H492.6z"/>
	<path fill="white" d="M518,709.7c-3.2,5-4.8,11.4-4.8,19.2v21.3h-5.5v-53h5.5v9c1.1-1.6,2.5-3.1,4.1-4.4c4.8-3.8,11.1-5.7,18.9-5.7
		v5.1C527.8,701,521.7,703.9,518,709.7z"/>
	<path fill="white" d="M544.7,687.5c-1.2,0-2-0.7-2.6-2.2v-7.6c0.6-1.4,1.5-2.2,2.6-2.2c0.9,0,1.8,0.7,2.9,2v8
		C546.6,686.9,545.6,687.5,544.7,687.5z M542.1,750.1v-53.8h5.5v53.8H542.1z"/>
	<path fill="white" d="M598.6,750.1v-34.6c0-4.7-1.5-8.4-4.5-11c-3-2.4-7-3.6-12.1-3.6c-6.1,0-10.8,1.8-14.3,5.4
		c-3.5,3.6-5.2,8.3-5.2,14v29.7h-5.5v-53h5.5v7.3c4.2-5.6,10.7-8.5,19.5-8.5c6.4,0,11.7,1.5,15.7,4.6c4.4,3.3,6.6,8,6.6,14.1v35.6
		H598.6z"/>
	<path fill="white" d="M637.8,769.5c-6.5,0-11.8-1.3-15.9-3.8c-5.1-3-7.8-8.1-8.1-15.3h5.5c0.8,9.3,7,14,18.6,14
		c13.4,0,20.1-5.6,20.1-16.9v-6.9c-4.9,6.4-12,9.5-21.2,9.5c-8.1,0-14.5-2.5-19.2-7.5c-4.7-5-7-11.5-7-19.4c0-8.1,2.4-14.7,7.2-19.7
		c4.8-5.1,11.4-7.6,19.8-7.6c9.1,0,15.9,3.3,20.5,9.8v-8.6h5.5v50.5C663.5,762.2,654.9,769.5,637.8,769.5z M637.3,701
		c-6.5,0-11.7,2.2-15.6,6.5c-3.8,4.1-5.6,9.3-5.6,15.6c0,6.4,1.7,11.6,5.2,15.5c3.7,4.3,8.8,6.4,15.3,6.4c6.6,0,11.9-2,15.7-6
		c3.8-4,5.7-9.2,5.7-15.6c0-6.4-1.9-11.7-5.6-16C648.6,703.1,643.6,701,637.3,701z"/>
	<path fill="white" d="M758.9,739.4c-6.1,8.3-14,12.5-23.7,12.5c-6.4,0-12-1.5-16.9-4.4c-5.8-3.5-8.7-8.2-8.7-14.3
		c0-5.5,2.5-10.5,7.5-15.1c3.2-2.9,8.2-6,14.7-9.3c-8.3-4.4-12.4-10.3-12.4-17.6c0-4.6,1.9-8.3,5.8-11c3.4-2.4,7.5-3.6,12.3-3.6
		c5.1,0,9.3,1.2,12.7,3.5c3.8,2.6,5.6,6.4,5.6,11.3c0,6.9-6.9,14.1-20.7,21.4c-6.9,3.6-11.4,6.4-13.7,8.5c-4.2,3.8-6.3,7.7-6.3,11.9
		c0,4.2,2.1,7.6,6.3,10.2c3.8,2.3,8.2,3.5,13.1,3.5c9.4,0,16.3-3.9,20.7-11.7c2.5-4.4,3.7-9.5,3.7-15.3h5.5v32.4h-5.5V739.4z
		 M746.3,684c-2.3-1.5-5.2-2.3-8.5-2.3c-3.5,0-6.4,0.8-8.9,2.4c-2.7,1.7-4,4.1-4,7.2c0,6.2,4.1,11.1,12.3,14.6
		c8.7-4.8,13.1-9.7,13.1-14.6C750.3,688.2,749,685.8,746.3,684z"/>
	<path fill="white" d="M859.9,750.2v-9.5c-4.8,7.1-12.2,10.6-22,10.6c-8.4,0-15-2.7-19.8-8c-4.5-5.1-6.8-11.6-6.8-19.5
		c0-8.2,2.3-14.8,6.9-19.8c4.8-5.4,11.5-8,20.1-8c9.7,0,16.8,3.4,21.5,10.3v-10.1h5.5v54.1H859.9z M854.4,707.3
		c-3.9-4.2-9.4-6.3-16.6-6.3c-6.6,0-11.9,2.2-15.8,6.7c-3.5,4.2-5.3,9.5-5.3,16.1c0,6.6,1.8,11.9,5.3,15.9c3.8,4.3,9,6.5,15.8,6.5
		c6.7,0,12.1-2.1,16.1-6.4c4-4.3,6-9.6,6-16.1C859.9,716.8,858.1,711.3,854.4,707.3z"/>
	<path fill="white" d="M885.8,698.4v3.5h12v5.2h-12v43.2h-5.5v-43.2h-7.8v-5.2h7.8v-3.5c0-13.7,9.2-20.5,27.5-20.5v5
		C893.1,682.9,885.8,688,885.8,698.4z"/>
	<path fill="white" d="M916.7,704.6v45.6h-5.3l-0.2-45.6h-10.7v-5.1h10.7v-15.9h5.5v15.9h10.9v5.1H916.7z"/>
	<path fill="white" d="M934.8,725.6c0.7,13.7,8,20.6,21.8,20.6c10.5,0,17.4-4.3,20.7-12.9h5.6c-2.1,6.8-5.7,11.6-10.7,14.3
		c-4.4,2.5-9.7,3.7-15.8,3.7c-8.9,0-15.7-2.6-20.3-7.7c-4.4-4.8-6.6-11.4-6.6-19.8c0-8.3,2.5-15,7.5-20.2c5-5.1,11.7-7.7,20-7.7
		c8.3,0,14.9,2.3,19.9,7s7.5,10.9,7.5,18.8v3.8L934.8,725.6z M956.9,701c-6.1,0-11.2,1.7-15.1,5.2c-3.9,3.5-6.2,8.2-6.9,14.3h43.3
		c-0.4-6.1-2.5-10.8-6.3-14.3C968,702.7,963,701,956.9,701z"/>
	<path fill="white" d="M1000,709.7c-3.2,5-4.8,11.4-4.8,19.2v21.3h-5.5v-53h5.5v9c1.1-1.6,2.5-3.1,4.1-4.4c4.8-3.8,11.1-5.7,18.9-5.7
		v5.1C1009.8,701,1003.7,703.9,1000,709.7z"/>
</g>
<path class="st1" d="M895.4,323.5c37.1-30.9,60.8-77.6,60.8-129.8c0-93.2-75.4-168.7-168.3-168.7s-168.3,75.5-168.3,168.7
	c0,52.2,23.6,98.8,60.8,129.8c-37.1,30.9-60.8,77.6-60.8,129.8c0,93.2,75.4,168.7,168.3,168.7s168.3-75.5,168.3-168.7
	C956.2,401.1,932.5,354.4,895.4,323.5z M696.6,193.7c0-50.5,40.9-91.4,91.2-91.4c50.4,0,91.2,40.9,91.2,91.4
	c0,47.6-36.2,86.6-82.5,91c-2.9-0.1-5.8-0.2-8.7-0.2s-5.8,0.1-8.7,0.2C732.8,280.3,696.6,241.3,696.6,193.7z M787.8,544.7
	c-50.4,0-91.2-40.9-91.2-91.4c0-47.6,36.2-86.6,82.5-91c2.9,0.1,5.8,0.2,8.7,0.2s5.8-0.1,8.7-0.2c46.3,4.4,82.5,43.5,82.5,91
	C879.1,503.7,838.2,544.7,787.8,544.7z"/>
<g>
	<rect x="246" y="205.4" fill="white" width="79.2" height="79.4"/>
	<polygon fill="white" points="644.9,282.8 475.4,509.2 475.4,282.8 386,282.8 351.5,339.3 397.1,339.3 397.1,622.7 498.7,622.7 
		735.8,282.8 	"/>
	<path fill="white" d="M246,545.1v0.2v0.5l-19.4,0c-11,0-21.3-2.1-30.9-6.3c-9.6-4.2-18-10-25.3-17.3c-7.3-7.3-13-15.7-17.2-25.3
		c-4.2-9.6-6.3-19.9-6.3-30.9V328.1V204.9h-34.5l0.5-0.5H56.6l-34,57h45.2v204.5c0,22.1,4.1,42.8,12.4,62.1
		c8.3,19.3,19.6,36.2,34,50.6c14.4,14.4,31.3,25.8,50.5,34.1c19.3,8.3,39.9,12.4,61.9,12.4h45.2h9.4h44v-316H246V545.1z"/>
	<path fill="white" d="M932.1,487.3c-6.8,16.6-17.7,30.2-32.8,40.9c-15.1,10.7-32.1,16.1-51.3,16.1c-12.6,0-24.5-2.4-35.5-7.1
		c-11-4.7-20.6-11.2-28.9-19.5c-8.3-8.3-14.7-17.9-19.4-29c-4.7-11-7-22.9-7-35.5c0-12.7,2.3-24.5,7-35.5c4.7-11,11.2-20.7,19.4-29
		c8.3-8.3,17.9-14.8,28.9-19.5c11-4.7,22.8-7.1,35.5-7.1c11.3,0,22.1,2,32.3,6.1c10.2,4.1,19.4,9.8,27.4,17.3L866,453.2h105.4
		l28.2-45.3l7.8-13.1c-1-2.9-2.3-6.2-3.9-9.7c-6.5-14.9-15-28.6-25.5-41.1c-10.5-12.5-22.5-23.3-36-32.4
		c-13.4-9.1-28.1-16.2-44-21.2c-15.9-5-32.6-7.5-50-7.5c-23.6,0-45.8,4.5-66.3,13.4c-20.6,8.9-38.5,21.1-53.9,36.5
		c-15.4,15.4-27.5,33.4-36.4,54c-8.9,20.6-13.4,42.8-13.4,66.5c0,23.7,4.5,45.9,13.4,66.5c8.9,20.6,21.1,38.6,36.4,54
		c15.4,15.4,33.4,27.6,53.9,36.5c20.6,8.9,42.7,13.4,66.3,13.4c20.7,0,40.3-3.4,58.8-10.2c18.5-6.8,35-16.3,49.6-28.5
		c14.6-12.2,27-26.6,37.2-43.3c10.2-16.7,17.2-34.8,21.1-54.3H932.1z"/>
</g>
</svg>
