<?xml version="1.0" encoding="utf-8"?>
<!DOCTYPE svg PUBLIC "-//W3C//DTD SVG 1.1//EN" "http://www.w3.org/Graphics/SVG/1.1/DTD/svg11.dtd">
<svg version="1.1" xmlns="http://www.w3.org/2000/svg" xmlns:xlink="http://www.w3.org/1999/xlink" x="0px" y="0px" viewBox="0 0 1000 1000" enable-background="new 0 0 1000 1000" xml:space="preserve">
<g><path fill="#ffffff" d="M845.6,469.3L349.5,182.8c-5.4-3.1-11.5-4.8-17.7-4.8c-19.6,0-35.5,15.9-35.5,35.5v572.9c0,19.6,15.9,35.5,35.5,35.5c6.1,0,12.3-1.7,17.7-4.8l496.1-286.4c11.1-6.4,17.7-17.9,17.7-30.7C863.4,487.2,856.7,475.7,845.6,469.3z M837.4,516.4L341.2,802.9c-3,1.7-6.1,2.6-9.4,2.6c-9.1,0-19-7.3-19-19V213.5c0-11.7,9.9-19,19-19c3.3,0,6.5,0.9,9.4,2.6l496.1,286.5c5.9,3.4,9.5,9.6,9.5,16.4C846.9,506.9,843.3,513,837.4,516.4z M500,10C229.4,10,10,229.4,10,500c0,270.6,219.4,490,490,490c270.6,0,490-219.4,490-490C990,229.4,770.6,10,500,10z M500,973.5c-261.5,0-473.5-212-473.5-473.5c0-261.5,212-473.5,473.5-473.5c261.5,0,473.5,212,473.5,473.5C973.5,761.5,761.5,973.5,500,973.5z"/></g>
</svg>