<svg version="1.1" xmlns="http://www.w3.org/2000/svg" xmlns:xlink="http://www.w3.org/1999/xlink" x="0px" y="0px" viewBox="0 0 512 512" style="enable-background:new 0 0 512 512;" xml:space="preserve">
<style type="text/css">
	  .svg-fill{fill:#FFFFFF;}
</style>
<path style="fill-rule:evenodd;clip-rule:evenodd;" class="svg-fill" d="M360.8,56.1c-4.1,0-7.5,3.4-7.5,7.7c0,4.2,3.4,7.7,7.5,7.7c4.1,0,7.5-3.4,7.5-7.7 C368.3,59.5,364.9,56.1,360.8,56.1L360.8,56.1z M364.5,463.6h-217c-2.1,0-3.7,1.7-3.7,3.8c0,2.1,1.7,3.8,3.7,3.8h217 c2.1,0,3.7-1.7,3.7-3.8C368.3,465.3,366.6,463.6,364.5,463.6L364.5,463.6z M256,363.7c-20.6,0-37.4-17.2-37.4-38.4 c0-21.2,16.8-38.4,37.4-38.4c20.6,0,37.4,17.2,37.4,38.4C293.4,346.4,276.6,363.7,256,363.7L256,363.7z M256,279.1 c-24.8,0-44.9,20.7-44.9,46.1c0,25.5,20.1,46.1,44.9,46.1c24.8,0,44.9-20.7,44.9-46.1C300.9,299.7,280.8,279.1,256,279.1L256,279.1z M256,109.9c8.3,0,15,6.9,15,15.4c0,8.5-6.7,15.4-15,15.4c-8.3,0-15-6.9-15-15.4C241,116.8,247.7,109.9,256,109.9L256,109.9z M256,148.3c12.4,0,22.5-10.3,22.5-23.1c0-12.7-10-23.1-22.5-23.1c-12.4,0-22.5,10.3-22.5,23.1C233.5,138,243.6,148.3,256,148.3 L256,148.3z M256,425.2c53.6,0,97.3-44.9,97.3-100c0-55.1-43.6-100-97.3-100s-97.3,44.8-97.3,100C158.7,380.3,202.4,425.2,256,425.2 L256,425.2z M256,209.9c-62,0-112.3,51.6-112.3,115.3c0,63.7,50.3,115.3,112.3,115.3c62,0,112.3-51.6,112.3-115.3 C368.3,261.5,318,209.9,256,209.9L256,209.9z M256,71.5c-28.9,0-52.4,24.1-52.4,53.8c0,29.7,23.5,53.8,52.4,53.8 s52.4-24.1,52.4-53.8C308.4,95.6,284.9,71.5,256,71.5L256,71.5z M256,194.5c37.2,0,67.4-31,67.4-69.2c0-38.2-30.2-69.2-67.4-69.2 s-67.4,31-67.4,69.2C188.6,163.5,218.8,194.5,256,194.5L256,194.5z M398.2,463.6c0,12.7-10.1,23.1-22.5,23.1H136.3 c-12.4,0-22.5-10.3-22.5-23.1V48.4c0-12.7,10.1-23.1,22.5-23.1h239.5c12.4,0,22.5,10.4,22.5,23.1V463.6L398.2,463.6z M375.7,9.9 c20.6,0,37.4,17.3,37.4,38.4v415.2c0,21.1-16.8,38.4-37.4,38.4H136.3c-20.6,0-37.4-17.3-37.4-38.4V48.4c0-21.1,16.8-38.4,37.4-38.4 H375.7z"/></svg>