<?xml version="1.0" encoding="utf-8"?>
<!-- Generator: Adobe Illustrator 21.1.0, SVG Export Plug-In . SVG Version: 6.00 Build 0)  -->
<svg version="1.1" id="Layer_1" xmlns="http://www.w3.org/2000/svg" xmlns:xlink="http://www.w3.org/1999/xlink" x="0px" y="0px"
	 viewBox="0 0 50 50" style="enable-background:new 0 0 50 50;" xml:space="preserve">
<style type="text/css">
	.st0{fill:url(#greendient);}
	.st1{opacity:0.15;enable-background:new;}
	.st2{fill:none;stroke:url(#greendient);stroke-linecap:round;stroke-linejoin:round;stroke-miterlimit:10;}
	.st3{fill:none;stroke:#A3E337;stroke-linecap:round;stroke-linejoin:round;stroke-miterlimit:10;}
</style>
<linearGradient id="greendient" gradientUnits="userSpaceOnUse" x1="3.4" y1="25" x2="46.6" y2="25">
		<stop offset="0" style="stop-color:#7aaf22"/>
		<stop offset="1" style="stop-color:#A3E337"/>
</linearGradient>
<g id="base_2_">
	<circle id="gradient_3_" class="st0" cx="25" cy="25" r="21.6"/>
	<circle id="screen_2_" class="st1" cx="25" cy="25" r="19"/>
</g>
<g id="line_3_">
	<path class="st2" d="M42.4,8.3c4.1,4.3,6.7,10.2,6.7,16.7c0,13.3-10.8,24.1-24.1,24.1S0.9,38.3,0.9,25S11.7,0.9,25,0.9
		c2.9,0,5.8,0.5,8.4,1.5"/>
	<path class="st3" d="M36.7,3.9c1,0.5,2,1.2,2.8,1.9"/>
</g>
<g id="icon">
	<path fill="white" d="M25,21.8c2,0,3.5-1.6,3.5-3.6c0-2-1.6-3.6-3.5-3.6c-2,0-3.5,1.6-3.5,3.6C21.5,20.2,23,21.8,25,21.8z M25,15.3
		c1.5,0,2.7,1.3,2.7,2.8c0,1.6-1.2,2.8-2.7,2.8c-1.5,0-2.7-1.3-2.7-2.8C22.3,16.6,23.5,15.3,25,15.3z"/>
	<path fill="white" d="M31.3,12.1L31.3,12.1l-12.6,0c-1.1,0-2,0.9-2,2v21.8c0,1.1,0.9,2,2,2h12.6c1.1,0,2-0.9,2-2V14.1
		C33.2,13,32.4,12.1,31.3,12.1z M32.5,35.9L32.5,35.9c0,0.7-0.5,1.2-1.2,1.2H18.7c-0.7,0-1.2-0.5-1.2-1.2V14.1
		c0-0.7,0.5-1.2,1.2-1.2h12.6c0.7,0,1.2,0.5,1.2,1.2V35.9z"/>
	<path fill="white" d="M25,19.4c0.7,0,1.2-0.5,1.2-1.2c0-0.7-0.5-1.2-1.2-1.2c-0.7,0-1.2,0.5-1.2,1.2C23.8,18.8,24.3,19.4,25,19.4z
		 M25,17.3c0.4,0,0.8,0.4,0.8,0.8S25.4,19,25,19c-0.4,0-0.8-0.4-0.8-0.8S24.6,17.3,25,17.3z"/>
	<path fill="white" d="M30.7,35.9H19.3c-0.1,0-0.2,0.1-0.2,0.2c0,0.1,0.1,0.2,0.2,0.2h11.4c0.1,0,0.2-0.1,0.2-0.2
		C30.9,36,30.8,35.9,30.7,35.9z"/>
	<path fill="white" d="M25,22.6c-3.3,0-5.9,2.7-5.9,6s2.6,6,5.9,6s5.9-2.7,5.9-6S28.3,22.6,25,22.6z M25,33.9c-2.8,0-5.1-2.4-5.1-5.2
		c0-2.9,2.3-5.2,5.1-5.2c2.8,0,5.1,2.4,5.1,5.2C30.1,31.5,27.8,33.9,25,33.9z"/>
	<ellipse fill="white" cx="30.5" cy="14.9" rx="0.4" ry="0.4"/>
	<path fill="white" d="M25,26.2c-1.3,0-2.4,1.1-2.4,2.4c0,1.3,1.1,2.4,2.4,2.4c1.3,0,2.4-1.1,2.4-2.4C27.4,27.3,26.3,26.2,25,26.2z
		 M25,30.7c-1.1,0-2-0.9-2-2c0-1.1,0.9-2,2-2c1.1,0,2,0.9,2,2C27,29.7,26.1,30.7,25,30.7z"/>
</g>
</svg>
