<?xml version="1.0" encoding="utf-8"?>
<svg xmlns="http://www.w3.org/2000/svg" xmlns:xlink="http://www.w3.org/1999/xlink" x="0px" y="0px"
	 viewBox="0 0 200 90" style="enable-background:new 0 0 200 90;" xml:space="preserve">
	 <style>
	 .svg-fill{fill: #A1CD3A}
	 </style>
<g>
	<path class="svg-fill" d="M101.6,85.8c-19.7,0.1-37.5-1.4-55.1-4.9c-11.5-2.3-22.7-5.5-33.1-11.3c-3-1.7-5.7-3.8-8.1-6.4
		c-4.5-5-4.4-11.3,0.1-16.2c3.9-4.3,8.8-7,14-9.4c5.9-2.7,12-4.6,18.3-6.2c0.8-0.2,1.9-1.1,2.4,0.4c0.5,1.5-0.2,3.7-1.3,4.1
		c-3.1,1.1-6.3,2-9.3,3.2c-4.1,1.6-8.1,3.6-11.4,6.5c-1.8,1.6-3.4,3.4-3.7,6c-0.3,3.3,1.5,5.6,3.8,7.5c3.4,2.8,7.3,4.7,11.3,6.2
		c11,4.2,22.5,6.2,34.2,7.7c14.9,1.9,29.8,2.6,44.7,2.1c18.5-0.6,37-2.2,54.9-7.4c6.3-1.8,12.7-3.8,17.9-8.1
		c6.2-5.1,6.2-10.1-0.3-15.1c-1.8-1.4-3.8-2.5-5.8-3.6c-1.3-0.7-1.9-0.4-2.4,1c-0.8,2.4-1.7,4.8-2.5,7.3c-0.2,0.7-0.2,1.7-1.1,1.7
		c-0.7,0-0.8-0.9-1.1-1.5c-2.4-4.9-4.7-9.8-7.2-14.6c-0.7-1.4-0.4-2.1,1-2.7c5-2.4,10-4.8,15.1-7.3c0.5-0.2,1-0.6,1.4-0.3
		c0.6,0.4,0.1,1.1-0.1,1.6c-0.7,2.1-1.3,4.2-2.2,6.2c-0.9,1.9-0.6,2.9,1.6,3.7c5.1,2,10.1,4.4,14.3,8c3.8,3.2,6.7,6.8,6,12.2
		c-0.4,3.6-2.5,6.3-5.1,8.7c-5.1,4.6-11.3,7.3-17.6,9.7c-11.3,4.2-23,6.6-35,8.3C126.8,84.9,113.4,85.9,101.6,85.8z"/>
	<path class="svg-fill" d="M113.1,33c0.2-6.1,1.3-11.7,4.7-16.7c7.3-10.9,25.6-9.8,30.6,2.9c3.7,9.5,3.9,19.2-0.6,28.6
		c-3.1,6.4-8.6,9-15.4,9.1c-6.7,0.1-12.1-2.6-15.6-8.5C113.9,43.6,113.4,38.3,113.1,33z M137.3,33.5c0-4.6-0.8-8.7-2.2-10.9
		c-2.1-3.4-4.4-3.3-6.3,0.2c-1.4,2.6-1.9,5.5-2,8.4c-0.2,4.1,0.2,8.2,2.1,11.9c0.7,1.4,1.6,3,3.5,3c1.9,0,2.7-1.8,3.4-3.3
		c0.2-0.4,0.3-0.8,0.4-1.2C137,38.9,137.5,36.1,137.3,33.5z"/>
	<path class="svg-fill" d="M75.2,34.4c-0.2-5.1,0.9-9.8,2.7-14.3c2.4-6,7.3-9.3,13.1-11.2c2.8-0.9,5.9,0.3,8.9,0.8
		c3.1,0.5,5.9,1.7,8.6,3.2c1.4,0.8,2.1,1.7,1,3.3c-1.1,1.7-2,3.6-2.9,5.4c-0.6,1.3-1.3,1.5-2.6,0.7c-2.3-1.3-4.7-2.4-7.4-2.4
		c-3.7,0-6.6,1.9-8,5.4c-0.2,0.5-0.6,1-0.1,1.4c0.5,0.5,0.9,0,1.4-0.2c4.8-2.2,9.7-2.3,14.4,0.2c5.8,3.2,7.9,8.5,7.3,14.8
		c-0.6,6.4-4,11.1-10,13.6C89.7,60,78.2,53.6,75.7,41.1C75.2,38.8,75.2,36.5,75.2,34.4z M93.8,45.8c3.2,0,5.6-2.2,5.6-5.2
		c0-3.3-2-5.5-4.9-5.5c-2.8,0-6.5,2.4-6.5,4.2C88,42.7,90.7,45.8,93.8,45.8z"/>
	<path class="svg-fill" d="M57.2,9.2c4,0.1,8.5,1.2,12,5c4.3,4.7,4.4,11.7-0.2,16.1c-1,1-1,1.4,0.1,2.3c7.2,6.1,6,17.3-3.4,22
		c-7.9,3.9-17.3,2.9-23.9-2.8c-2.3-2-2.3-2.5-0.2-4.7c1.2-1.3,2.6-2.4,3.7-3.8c1-1.2,1.8-1.1,2.9-0.1c2.2,2.1,4.9,3.2,8,3
		c2.9-0.2,4.8-2,4.7-4.7c0-3-1.3-4.2-4.5-4.4c-1.3-0.1-2.6-0.1-4-0.1c-1.3,0-1.9-0.6-1.8-1.9c0-0.1,0-0.1,0-0.2
		c-0.2-6-0.2-6,5.7-6.4c2.8-0.2,4.4-1.7,4.5-4.1c0.1-2.6-1.7-4.5-4.4-4.8c-2.8-0.3-5.1,0.7-7,2.5c-1.4,1.3-2.3,1-3.3-0.5
		c-1.2-1.7-2.7-3.3-4-4.9c-0.8-0.9-0.7-1.7,0.2-2.4C46.3,11.1,50.9,8.9,57.2,9.2z"/>
	<path class="svg-fill" d="M168.9,15c0,4.8-3.9,8.7-8.7,8.6c-4.8-0.1-8.4-3.8-8.5-8.6c0-5,3.8-8.8,8.7-8.7C165.3,6.3,168.9,10,168.9,15z
		 M164.5,14.8c0-2.2-1.9-4-4.1-4c-2.3,0-4.3,1.8-4.3,4.1c0,2.2,1.8,4,4.1,4.1C162.4,19,164.5,17,164.5,14.8z"/>
</g>
<g>
</g>
<g>
</g>
<g>
</g>
<g>
</g>
<g>
</g>
<g>
</g>
<g>
</g>
<g>
</g>
<g>
</g>
<g>
</g>
<g>
</g>
<g>
</g>
<g>
</g>
<g>
</g>
<g>
</g>
</svg>
