<svg xmlns="http://www.w3.org/2000/svg" xmlns:xlink="http://www.w3.org/1999/xlink" version="1.1" x="0px" y="0px" viewBox="0 0 100 125" style="enable-background:new 0 0 100 100;" xml:space="preserve"><path d="M21.9,94.3L21.9,94.3c-0.5,0-1-0.4-1-1V21.9c0-0.5,0.4-1,1-1h0c0.5,0,1,0.4,1,1v71.4C22.9,93.8,22.4,94.3,21.9,94.3z"/><path d="M41.5,94.8h-34c-0.5,0-0.9-0.4-0.9-0.9v0c0-0.5,0.4-0.9,0.9-0.9h34c0.5,0,0.9,0.4,0.9,0.9v0C42.4,94.4,42,94.8,41.5,94.8z"/><path d="M9.4,94.3v-1.1c5.8,0,10.5-4.7,10.5-10.5V20.3h1.1v62.5C20.9,89.1,15.7,94.3,9.4,94.3z"/><path d="M22.7,84.1h-2.6c-0.6,0-1.1-0.5-1.1-1.1l0,0c0-0.6,0.5-1.1,1.1-1.1h2.6c0.6,0,1.1,0.5,1.1,1.1l0,0  C23.8,83.6,23.3,84.1,22.7,84.1z"/><path d="M25.1,18.4c-1-2.7,0.1-5.6,2.4-6.7c-0.1,0-0.2,0-0.2,0.1l-13.5,5c-2.5,0.9-3.7,4-2.7,6.8S15,28,17.5,27l13.5-5  c0.1,0,0.2-0.1,0.4-0.2C28.9,22.8,26.1,21.2,25.1,18.4z"/><path d="M28,12c-0.1,0-0.2,0.1-0.4,0.2c-0.1,0-0.1,0.1-0.2,0.1c-2,1.1-2.8,3.7-1.9,6.1c0.9,2.4,3.2,3.8,5.5,3.4c0.1,0,0.1,0,0.2,0  c0.1,0,0.2-0.1,0.4-0.1c2.4-0.9,3.5-3.7,2.5-6.3C33,12.5,30.4,11.1,28,12z"/><path d="M77.1,94.3L77.1,94.3c0.5,0,1-0.4,1-1V21.9c0-0.5-0.4-1-1-1l0,0c-0.5,0-1,0.4-1,1v71.4C76.2,93.8,76.6,94.3,77.1,94.3z"/><path d="M57.5,94.8h34c0.5,0,0.9-0.4,0.9-0.9v0c0-0.5-0.4-0.9-0.9-0.9h-34c-0.5,0-0.9,0.4-0.9,0.9v0C56.7,94.4,57,94.8,57.5,94.8z"/><path d="M89.6,94.3v-1.1c-5.8,0-10.5-4.7-10.5-10.5V20.3h-1.1v62.5C78.1,89.1,83.3,94.3,89.6,94.3z"/><path d="M76.4,84.1h2.6c0.6,0,1.1-0.5,1.1-1.1l0,0c0-0.6-0.5-1.1-1.1-1.1h-2.6c-0.6,0-1.1,0.5-1.1,1.1l0,0  C75.2,83.6,75.7,84.1,76.4,84.1z"/><path d="M73.9,18.4c1-2.7-0.1-5.6-2.4-6.7c0.1,0,0.2,0,0.2,0.1l13.5,5c2.5,0.9,3.7,4,2.7,6.8c-1,2.8-3.9,4.4-6.4,3.4l-13.5-5  c-0.1,0-0.2-0.1-0.4-0.2C70.1,22.8,72.9,21.2,73.9,18.4z"/><path d="M71,12c0.1,0,0.2,0.1,0.4,0.2c0.1,0,0.1,0.1,0.2,0.1c2,1.1,2.8,3.7,1.9,6.1c-0.9,2.4-3.2,3.8-5.5,3.4c-0.1,0-0.1,0-0.2,0  c-0.1,0-0.2-0.1-0.4-0.1c-2.4-0.9-3.5-3.7-2.5-6.3C66,12.5,68.7,11.1,71,12z"/><g><path d="M32.4,56.4c0.3,0,0.5-0.2,0.5-0.5s-0.2-0.5-0.5-0.5h-0.1l3.1-2.9l-0.7-0.7l-4.4,4.1l4.4,4.1l0.7-0.7L32.4,56.4L32.4,56.4z"/><path d="M48.9,55.4h-2.1c-0.3,0-0.5,0.2-0.5,0.5s0.2,0.5,0.5,0.5h2.1c0.3,0,0.5-0.2,0.5-0.5S49.2,55.4,48.9,55.4z"/><path d="M44.8,55.4h-2.1c-0.3,0-0.5,0.2-0.5,0.5s0.2,0.5,0.5,0.5h2.1c0.3,0,0.5-0.2,0.5-0.5S45.1,55.4,44.8,55.4z"/><path d="M40.7,55.4h-2.1c-0.3,0-0.5,0.2-0.5,0.5s0.2,0.5,0.5,0.5h2.1c0.3,0,0.5-0.2,0.5-0.5S40.9,55.4,40.7,55.4z"/><path d="M36.5,55.4h-2.1c-0.3,0-0.5,0.2-0.5,0.5s0.2,0.5,0.5,0.5h2.1c0.3,0,0.5-0.2,0.5-0.5S36.8,55.4,36.5,55.4z"/><path d="M65.9,55.9c0-0.3-0.2-0.5-0.5-0.5h-2.1c-0.3,0-0.5,0.2-0.5,0.5s0.2,0.5,0.5,0.5h2.1C65.7,56.4,65.9,56.2,65.9,55.9z"/><path d="M61.3,55.4h-2.1c-0.3,0-0.5,0.2-0.5,0.5s0.2,0.5,0.5,0.5h2.1c0.3,0,0.5-0.2,0.5-0.5S61.6,55.4,61.3,55.4z"/><path d="M57.2,55.4h-2.1c-0.3,0-0.5,0.2-0.5,0.5s0.2,0.5,0.5,0.5h2.1c0.3,0,0.5-0.2,0.5-0.5S57.5,55.4,57.2,55.4z"/><path d="M53.1,55.4H51c-0.3,0-0.5,0.2-0.5,0.5s0.2,0.5,0.5,0.5h2.1c0.3,0,0.5-0.2,0.5-0.5S53.3,55.4,53.1,55.4z"/><path d="M65.2,51.8l-0.7,0.7l3.1,2.9h-0.1c-0.3,0-0.5,0.2-0.5,0.5s0.2,0.5,0.5,0.5h0.1l-3.1,2.9l0.7,0.7l4.4-4.1L65.2,51.8z"/></g></svg>