<svg xmlns="http://www.w3.org/2000/svg" xmlns:xlink="http://www.w3.org/1999/xlink" version="1.1" x="0px" y="0px" viewBox="0 0 100 125" style="enable-background:new 0 0 100 100;" xml:space="preserve"><path d="M51.9,94.3L51.9,94.3c-0.5,0-1-0.4-1-1V21.9c0-0.5,0.4-1,1-1l0,0c0.5,0,1,0.4,1,1v71.4C52.9,93.8,52.4,94.3,51.9,94.3z"/><path d="M71.5,94.8h-34c-0.5,0-0.9-0.4-0.9-0.9v0c0-0.5,0.4-0.9,0.9-0.9h34c0.5,0,0.9,0.4,0.9,0.9v0C72.4,94.4,72,94.8,71.5,94.8z"/><path d="M39.4,94.3v-1.1c5.8,0,10.5-4.7,10.5-10.5V20.3h1.1v62.5C50.9,89.1,45.7,94.3,39.4,94.3z"/><path d="M52.7,84.1h-2.6c-0.6,0-1.1-0.5-1.1-1.1l0,0c0-0.6,0.5-1.1,1.1-1.1h2.6c0.6,0,1.1,0.5,1.1,1.1l0,0  C53.8,83.6,53.3,84.1,52.7,84.1z"/><path d="M55.1,18.4c-1-2.7,0.1-5.6,2.4-6.7c-0.1,0-0.2,0-0.2,0.1l-13.5,5c-2.5,0.9-3.7,4-2.7,6.8S45,28,47.5,27l13.5-5  c0.1,0,0.2-0.1,0.4-0.2C58.9,22.8,56.1,21.2,55.1,18.4z"/><path d="M58,12c-0.1,0-0.2,0.1-0.4,0.2c-0.1,0-0.1,0.1-0.2,0.1c-2,1.1-2.8,3.7-1.9,6.1c0.9,2.4,3.2,3.8,5.5,3.4c0.1,0,0.1,0,0.2,0  c0.1,0,0.2-0.1,0.4-0.1c2.4-0.9,3.5-3.7,2.5-6.3S60.4,11.1,58,12z"/><text x="0" y="115" fill="#000000" font-size="5px" font-weight="bold" font-family="'Helvetica Neue', Helvetica, Arial-Unicode, Arial, Sans-serif">Created by Laura Hernández</text><text x="0" y="120" fill="#000000" font-size="5px" font-weight="bold" font-family="'Helvetica Neue', Helvetica, Arial-Unicode, Arial, Sans-serif">from the Noun Project</text></svg>