<svg version="1.1" xmlns="http://www.w3.org/2000/svg" xmlns:xlink="http://www.w3.org/1999/xlink" x="0px" y="0px" viewBox="0 0 512 512" style="enable-background:new 0 0 512 512;" xml:space="preserve"><g><path fill="white" d="M256,3.7C120.1,3.7,9.5,117.3,9.5,257c0,139.7,110.6,253.3,246.5,253.3c135.9,0,246.5-113.6,246.5-253.3 C502.5,117.3,391.9,3.7,256,3.7L256,3.7z M270.8,479.3v-39.9h-29.6v39.9C133.4,471.8,46.9,383,39.6,272.2h38.9v-30.4H39.6 C46.9,131,133.4,42.2,241.2,34.7v39.9h29.6V34.7c107.9,7.5,194.3,96.3,201.6,207.1h-38.9v30.4h38.9 C465.1,383,378.6,471.8,270.8,479.3z"/><path fill="white" d="M152.6,305.2c15.3-10.4,32.2-16.7,48.6-22.2c2.4-0.8,4.7-1.9,7.1-2.7l0.5-0.3c3.5-1.3,6.7-2.5,9.4-4 c0.1-0.3,0.3-0.8,0.5-1.6c-13.5-20.2-22.7-51.5-22.7-78.3c0-22.7,6.9-39.6,20.1-49.8c-5.7-3-12.5-4.1-19.9-4.1 c-19.6,0-35.5,8-35.5,36.9c0,19.2,7,42.7,17.5,56.4c-0.1,1.1-0.2,2.2-0.4,3.2c-0.6,2.9-1.6,6.2-4.3,7.9c-3,1.8-6.3,3-9.6,4.2 c-13.6,4.7-27.6,8.8-39.7,17.1c-6.3,4.3-10.5,12.7-12.9,19.9c-2.4,7.5-3.4,14.8-3.2,25h37C147.5,307.7,150,307,152.6,305.2z"/><path fill="white" d="M387.8,268.1c-12.1-8.2-26.1-12.5-39.7-17.2c-3.3-1.2-6.6-2.4-9.6-4.2c-2.7-1.6-3.7-5-4.3-7.9 c-0.3-1.6-0.4-3.1-0.5-4.7c9.8-13.9,16.4-36.4,16.4-55c0-28.9-15.9-37-35.5-37c-7.5,0-14.4,1.2-20.1,4.2 c13,10.3,19.9,27.1,19.9,49.7c0,26.1-8.5,56.1-21.5,76.5c0.1,0.2,0.1,0.4,0.1,0.7c0.3,1.6,0.6,2.4,0.8,2.8c2.8,1.6,6.2,2.9,10,4.3 l5.7,2c16.8,5.7,34.2,12.7,49.8,23.4c2.6,1.7,4.9,2,7.2,7.1h37.3c0.1-10.1-0.8-17.5-3.2-25C398.3,280.6,394.1,272.4,387.8,268.1z" /><path fill="white" d="M352.9,314.9c-16.1-11-34.8-16.7-52.9-23c-4.4-1.6-8.8-3.2-12.8-5.7c-3.6-2.2-4.9-6.6-5.7-10.5 c-0.4-2.1-0.6-4.2-0.7-6.3c13.1-18.5,21.8-48.6,21.8-73.3c0-38.5-21.2-49.3-47.3-49.3c-26.1,0-47.3,10.7-47.3,49.3 c0,25.6,9.3,56.9,23.3,75.2c-0.1,1.4-0.3,2.9-0.5,4.3c-0.8,3.9-2.2,8.3-5.7,10.5c-4,2.4-8.4,4-12.8,5.5 c-18.1,6.3-36.8,11.8-52.9,22.8c-8.4,5.6-14,16.6-17.2,26.2c-3.2,10-4.5,22.8-4.3,32.9h236.7c0.2-10.1-1.1-23-4.3-32.9 C366.9,330.9,361.2,320.5,352.9,314.9z"/></g></svg>