<svg version="1.1" xmlns="http://www.w3.org/2000/svg" xmlns:xlink="http://www.w3.org/1999/xlink" x="0px" y="0px"
viewBox="0 0 512 512" style="enable-background:new 0 0 512 512;" xml:space="preserve">
	<path class="svg-fill" style="fill-rule:evenodd;clip-rule:evenodd;" d="M445.7,158.3h-26.5v-44.7c0-7.6-6-13.7-13.3-13.7H106.2c-7.4,0-13.3,6.1-13.3,13.7v44.7H66.3
		C59,158.3,53,164.5,53,172v226.4c0,7.6,6,13.7,13.3,13.7h148.3c6.7,0,12.4-5.1,13.2-12l7.4-61.5c1.3-10.7,10.2-18.8,20.7-18.8
		c10.5,0,19.4,8.1,20.7,18.8l7.4,61.5c0.8,6.9,6.5,12,13.2,12h148.3c7.4,0,13.3-6.1,13.3-13.7V172
		C459,164.5,453,158.3,445.7,158.3L445.7,158.3z M119.5,127.3h272.9v31H119.5V127.3L119.5,127.3z M432.3,384.7H309.1l-6-49.5
		c-2.9-24.4-23.2-42.8-47.1-42.8c-23.9,0-44.2,18.4-47.2,42.8l-6,49.5H79.7v-199h352.7V384.7z"/>
	<path class="svg-fill" style="fill-rule:evenodd;clip-rule:evenodd;"d="M156.6,200c-35.3,0-64,29.5-64,65.7c0,36.2,28.7,65.7,64,65.7s64-29.5,64-65.7
		C220.5,229.5,191.8,200,156.6,200L156.6,200z M156.6,304.1c-20.6,0-37.3-17.2-37.3-38.3c0-21.1,16.7-38.3,37.3-38.3
		c20.6,0,37.3,17.2,37.3,38.3C193.9,286.9,177.1,304.1,156.6,304.1z"/>
	<path class="svg-fill" style="fill-rule:evenodd;clip-rule:evenodd;" d="M355.4,200c-35.3,0-64,29.5-64,65.7c0,36.2,28.7,65.7,64,65.7c35.3,0,64-29.5,64-65.7
		C419.4,229.5,390.7,200,355.4,200L355.4,200z M355.4,304.1c-20.6,0-37.3-17.2-37.3-38.3c0-21.1,16.7-38.3,37.3-38.3
		c20.6,0,37.3,17.2,37.3,38.3C392.8,286.9,376,304.1,355.4,304.1z"/>
</svg>
