<svg version="1.1" xmlns="http://www.w3.org/2000/svg" xmlns:xlink="http://www.w3.org/1999/xlink" x="0px" y="0px"
	 viewBox="0 0 50 50" style="enable-background:new 0 0 50 50;" xml:space="preserve">
	<style type="text/css">
		.st0{fill:url(#gradient_1_);}
		.st1{fill:none;stroke:url(#SVGID_1_);stroke-linecap:round;stroke-linejoin:round;stroke-miterlimit:10;}
		.st2{fill:none;stroke:#66003F;stroke-linecap:round;stroke-linejoin:round;stroke-miterlimit:10;}
	</style>
	<linearGradient id="gradient_1_" gradientUnits="userSpaceOnUse" x1="3.4" y1="25" x2="46.6" y2="25" gradientTransform="matrix(1 0 0 -1 0 50)">
		<stop offset="0" style="stop-color:#66003F"/>
		<stop offset="1" style="stop-color:#660026"/>
	</linearGradient>
	<circle id="gradient" class="st0" cx="25" cy="25" r="21.6"/>
	<g id="line">
		<linearGradient id="SVGID_1_" gradientUnits="userSpaceOnUse" x1="0.4" y1="25" x2="49.6" y2="25" gradientTransform="matrix(1 0 0 -1 0 50)">
			<stop offset="0" style="stop-color:#66003F"/>
			<stop offset="0.4401" style="stop-color:#660037"/>
			<stop offset="1" style="stop-color:#660026"/>
		</linearGradient>
		<path class="st1" d="M42.4,8.3c4.1,4.3,6.7,10.2,6.7,16.7c0,13.3-10.8,24.1-24.1,24.1S0.9,38.3,0.9,25S11.7,0.9,25,0.9
			c2.9,0,5.8,0.5,8.4,1.5"/>
		<path class="st2" d="M36.7,3.9c1,0.5,2,1.2,2.8,1.9"/>
	</g>
	<g id="icon">
		<path fill="white" d="M33.9,15.9c-2.3-2.3-5.4-3.8-8.9-3.8c-3.5,0-6.6,1.4-8.9,3.8c-2.3,2.3-3.7,5.6-3.7,9.1c0,3.6,1.4,6.8,3.7,9.1
			c2.3,2.3,5.4,3.8,8.9,3.8c3.5,0,6.6-1.4,8.9-3.8c2.3-2.3,3.7-5.6,3.7-9.1C37.6,21.4,36.1,18.2,33.9,15.9z M36.7,25.6l0,0.3
			c-0.4,6-5.1,10.8-10.9,11.2l-0.4,0v-0.1v-0.3v-1.7h-0.8v1.7v0.4l-0.1,0l-0.3,0c-5.8-0.4-10.5-5.2-10.9-11.2l0-0.4h0.1h0.3h1.7v-0.8
			h-1.7h-0.4l0-0.1l0-0.3c0.4-6,5.1-10.8,10.9-11.2l0.4,0v0.1v0.3v1.7h0.8v-1.7v-0.4l0.1,0l0.3,0c5.8,0.4,10.5,5.2,10.9,11.2l0,0.4
			h-0.1h-0.3h-1.7v0.8h1.7h0.4L36.7,25.6z"/>
		<path fill="white" d="M19.9,27.4L19.9,27.4c0.9-0.6,1.9-1,2.7-1.2l0.2-0.1l0.2-0.1l0,0c0.1,0,0.2-0.1,0.3-0.1
			c-0.7-1.1-1.1-2.7-1.1-4.1c0-1.1,0.3-1.9,0.8-2.5c-0.2,0-0.4-0.1-0.6-0.1c-1.1,0-1.6,0.5-1.6,1.7c0,1,0.4,2.2,0.9,2.8l0.1,0.1
			l0,0.1l0,0.2c0,0.2-0.1,0.4-0.3,0.6c-0.2,0.1-0.4,0.2-0.6,0.2L20.5,25c-0.6,0.2-1.2,0.4-1.7,0.8c-0.2,0.2-0.4,0.5-0.6,0.9
			C18,27,18,27.3,18,27.7h1.5C19.6,27.5,19.8,27.4,19.9,27.4z"/>
		<path fill="white" d="M31.3,25.8c-0.5-0.4-1.2-0.6-1.8-0.8l-0.2-0.1c-0.2-0.1-0.4-0.1-0.6-0.2c-0.2-0.1-0.3-0.4-0.3-0.6
			c0-0.1,0-0.2,0-0.3l0-0.1l0.1-0.1c0.5-0.7,0.8-1.8,0.8-2.7c0-1.2-0.5-1.7-1.6-1.7c-0.2,0-0.4,0-0.6,0.1c0.5,0.6,0.8,1.5,0.8,2.5
			c0,1.4-0.4,2.9-1.1,4c0.1,0.1,0.2,0.1,0.4,0.2l0.3,0.1c0.8,0.3,1.8,0.6,2.7,1.3l0.1,0c0.1,0.1,0.2,0.1,0.3,0.3H32
			c0-0.4-0.1-0.7-0.2-1C31.7,26.3,31.5,25.9,31.3,25.8z"/>
		<path fill="white" d="M29.9,28.3L29.9,28.3L29.9,28.3c-0.7-0.5-1.5-0.8-2.4-1l-0.3-0.1l0,0c-0.2-0.1-0.5-0.2-0.7-0.3l0,0
			c0,0,0,0,0,0c0,0,0,0,0,0l0,0c-0.3-0.2-0.4-0.5-0.5-0.8l0,0l0,0c0-0.1,0-0.3,0-0.4v0l0-0.1l0,0l0-0.1c0.6-0.9,1.1-2.4,1.1-3.6
			c0-0.8-0.2-1.3-0.5-1.7c-0.3-0.4-0.9-0.5-1.6-0.5c-0.7,0-1.3,0.2-1.6,0.5c-0.3,0.4-0.5,0.9-0.5,1.7c0,1.3,0.5,2.9,1.1,3.7l0.1,0.1
			l0,0l0,0.1l0,0l0,0.2l0,0c-0.1,0.2-0.1,0.6-0.5,0.8l0,0l0,0c-0.3,0.2-0.5,0.2-0.7,0.3l0,0l-0.4,0.1l0,0c-0.8,0.3-1.6,0.6-2.3,1l0,0
			l0,0c-0.4,0.3-0.6,0.9-0.8,1.2c-0.1,0.3-0.2,0.8-0.2,1.2h11.6c0-0.4-0.1-0.9-0.2-1.2C30.5,29.2,30.3,28.6,29.9,28.3z"/>
	</g>
</svg>
