<?xml version="1.0" encoding="utf-8"?>
<!-- Generator: Adobe Illustrator 21.1.0, SVG Export Plug-In . SVG Version: 6.00 Build 0)  -->
<svg version="1.1" id="Layer_1" xmlns="http://www.w3.org/2000/svg" xmlns:xlink="http://www.w3.org/1999/xlink" x="0px" y="0px"
	 viewBox="0 0 50 50" style="enable-background:new 0 0 50 50;" xml:space="preserve">
<style type="text/css">
	.st0{fill:url(#gradient_2_);}
	.st1{opacity:0.15;enable-background:new    ;}
	.st2{fill:none;stroke:url(#SVGID_1_);stroke-linecap:round;stroke-linejoin:round;stroke-miterlimit:10;}
	.st3{fill:none;stroke:#C70035;stroke-linecap:round;stroke-linejoin:round;stroke-miterlimit:10;}
</style>
<g>
	
		<linearGradient id="gradient_2_" gradientUnits="userSpaceOnUse" x1="276.0001" y1="-370.84" x2="319.2001" y2="-370.84" gradientTransform="matrix(1 0 0 -1 -272.6 -345.84)">
		<stop  offset="0" style="stop-color:#C70035"/>
		<stop  offset="1" style="stop-color:#C7061C"/>
	</linearGradient>
	<circle id="gradient_1_" class="st0" cx="25" cy="25" r="21.6"/>
	<circle id="screen_3_" class="st1" cx="25" cy="25" r="19"/>
	<g id="line_1_">
		
			<linearGradient id="SVGID_1_" gradientUnits="userSpaceOnUse" x1="273.0001" y1="-370.84" x2="322.2001" y2="-370.84" gradientTransform="matrix(1 0 0 -1 -272.6 -345.84)">
			<stop  offset="0" style="stop-color:#C70035"/>
			<stop  offset="0.4401" style="stop-color:#C7022D"/>
			<stop  offset="1" style="stop-color:#C7061C"/>
		</linearGradient>
		<path class="st2" d="M42.4,8.3c4.1,4.3,6.7,10.2,6.7,16.7c0,13.3-10.8,24.1-24.1,24.1S0.9,38.3,0.9,25S11.7,0.9,25,0.9
			c2.9,0,5.8,0.5,8.4,1.5"/>
		<path class="st3" d="M36.7,3.9c1,0.5,2,1.2,2.8,1.9"/>
	</g>
	<g>
	</g>
	<g>
	</g>
	<g>
	</g>
	<g>
	</g>
	<g>
	</g>
	<g>
	</g>
	<g>
	</g>
	<g>
	</g>
	<g>
	</g>
	<g>
	</g>
	<g>
	</g>
</g>
<g id="icon_1_">
	<path fill="white" d="M35.5,19.8h-1.7v-2.7c0-0.3-0.2-0.5-0.5-0.5H16.7c-0.3,0-0.5,0.2-0.5,0.5v2.7h-1.7c-0.3,0-0.5,0.2-0.5,0.5
		v12.6c0,0.3,0.2,0.5,0.5,0.5h8.2c0.2,0,0.5-0.2,0.5-0.5l0,0l0.4-3.4c0.1-0.7,0.7-1.3,1.4-1.3c0.7,0,1.3,0.5,1.4,1.3l0,0l0.4,3.4
		l0,0c0,0.3,0.2,0.5,0.5,0.5h8.2c0.3,0,0.5-0.2,0.5-0.5V20.3l0,0l0,0C36,20,35.8,19.8,35.5,19.8z M17.2,17.9v-0.2h15.6v2.2H17.2
		V17.9z M35,32.4h-0.2h0h-7l-0.4-3l0,0c-0.1-1.2-1.2-2.2-2.4-2.2c-1.2,0-2.2,0.9-2.4,2.2l-0.4,3H15V20.9h20V32.4z"/>
	<path fill="white" d="M19.5,22.1c-1.8,0-3.3,1.5-3.3,3.4c0,1.9,1.5,3.4,3.3,3.4c1.8,0,3.3-1.5,3.3-3.4
		C22.8,23.7,21.3,22.1,19.5,22.1z M19.5,27.9c-1.3,0-2.3-1.1-2.3-2.4c0-1.3,1-2.4,2.3-2.4c1.3,0,2.3,1.1,2.3,2.4
		C21.8,26.8,20.8,27.9,19.5,27.9z"/>
	<path fill="white" d="M30.5,28.9c1.8,0,3.3-1.5,3.3-3.4c0-1.9-1.5-3.4-3.3-3.4c-1.8,0-3.3,1.5-3.3,3.4
		C27.2,27.4,28.7,28.9,30.5,28.9z M30.5,23.2c1.3,0,2.3,1.1,2.3,2.4v0v0v0c0,1.3-1,2.4-2.3,2.4c-1.3,0-2.3-1.1-2.3-2.4
		C28.2,24.2,29.2,23.2,30.5,23.2z"/>
</g>
</svg>
