<svg xmlns="http://www.w3.org/2000/svg" viewBox="0 0 100 125"><style/><path d="M46.1 22.6c-3.5 0-6.3 2.8-6.3 6.3s2.8 6.3 6.3 6.3 6.3-2.8 6.3-6.3c0-3.4-2.8-6.3-6.3-6.3zm0 8.2c-1 0-1.8-.8-1.8-1.8s.8-1.8 1.8-1.8 1.8.8 1.8 1.8-.8 1.8-1.8 1.8z"/><path d="M46.1 12.6c-9 0-16.4 7.3-16.4 16.4 0 9 7.3 16.4 16.4 16.4S62.5 38 62.5 29c0-9.1-7.4-16.4-16.4-16.4zm0 31.1c-8.1 0-14.7-6.6-14.7-14.7S38 14.3 46.1 14.3 60.8 20.9 60.8 29s-6.6 14.7-14.7 14.7z"/><circle cx="46.1" cy="29" r="16.4"/><path fill="#fff" d="M46.1 9.9c-10.3 0-18.8 8.5-18.8 18.8v36.6c0 10.3 8.5 18.8 18.8 18.8s18.8-8.5 18.8-18.8V28.8c0-10.4-8.5-18.9-18.8-18.9zm16 55.5c0 8.8-7.2 16-16 16s-16-7.2-16-16V39.6c3.4 5.2 9.3 8.6 16 8.6s12.5-3.4 16-8.6v25.8zm-16-20.1c-9 0-16.4-7.3-16.4-16.4 0-9 7.3-16.4 16.4-16.4S62.5 19.9 62.5 29c0 9-7.4 16.3-16.4 16.3z"/><path fill="#fff" d="M46.1 14.3c-8.1 0-14.7 6.6-14.7 14.7S38 43.7 46.1 43.7 60.8 37.1 60.8 29s-6.6-14.7-14.7-14.7zm0 21c-3.5 0-6.3-2.8-6.3-6.3s2.8-6.3 6.3-6.3 6.3 2.8 6.3 6.3-2.8 6.3-6.3 6.3z"/><circle fill="#fff" cx="46.1" cy="29" r="1.8"/><path fill="#fff" d="M49.1 72.5h-6c-.3 0-.6.3-.6.6s.3.6.6.6h6c.3 0 .6-.3.6-.6 0-.4-.3-.6-.6-.6z"/><path fill="#fff" d="M49.3 67.7H43c-2.9 0-5.3 2.4-5.3 5.3s2.4 5.3 5.3 5.3h6.3c2.9 0 5.3-2.4 5.3-5.3s-2.4-5.3-5.3-5.3zm0 7.8H43c-1.4 0-2.5-1.1-2.5-2.5s1.1-2.5 2.5-2.5h6.3c1.4 0 2.5 1.1 2.5 2.5-.1 1.4-1.2 2.5-2.5 2.5z"/></svg>