<svg id="Layer_1" xmlns="http://www.w3.org/2000/svg" viewBox="0 0 1024 619"><style/><path d="M789.1 536.1c-51.5 0-94.3-41.9-94.3-94.3 0-51.5 42.8-94.3 94.3-94.3 52.4 0 95.2 42.8 95.2 94.3 0 52.3-42.8 94.3-95.2 94.3zm0 0zm174.7-94.3c0-96-77.7-173.7-174.6-173.7-96 0-173.7 77.7-173.7 173.7 0 96.9 77.7 174.6 173.7 174.6 96.9 0 174.6-77.7 174.6-174.6z"/><path d="M789.1 268.9c-51.5 0-94.3-41.9-94.3-94.3s42.8-95.2 94.3-95.2c52.4 0 95.2 42.8 95.2 95.2s-42.8 94.3-95.2 94.3zm0 0zm174.7-94.3C963.8 77.7 886.1 0 789.1 0c-96 0-173.7 77.7-173.7 174.6 0 96 77.7 173.7 173.7 173.7 97 0 174.7-77.7 174.7-173.7zM229.5 186h82.1v82h-82.1z"/><path d="M642.5 266.3L467 499.4V266.3h-92.5l-35.8 57.6h47.1v293.4h104.8l245.3-351zM229.5 537h-20.1v.9c-11.3 0-21.8-2.6-32.3-7-9.6-4.4-18.3-10.5-26.2-17.5-7-7.9-13.1-16.6-17.5-26.2-4.4-10.5-6.1-21-6.1-32.3V186H91.5v-.9H33l-34 58.5h46.4v211.3c0 22.7 4.4 44.5 13.1 64.6 7.8 20.1 20.1 36.7 34.9 51.5 14.9 15.7 32.3 27.1 52.4 35.8 19.2 8.7 41 12.2 63.7 12.2h47.1v-.9h55V293.3h-82.1V537zm794.5-60.3c-3.5 21-11.3 39.3-21.8 56.7-10.5 17.5-22.7 32.3-38.4 44.5-14.8 12.2-32.3 22.7-51.5 29.7-18.3 7-39.3 10.5-60.2 10.5-24.4 0-48-4.4-69-14s-40.2-21.8-55.9-37.5-28.8-34.9-37.5-55.9c-9.6-21.8-14-44.5-14-69 0-24.4 4.4-47.1 14-68.1 8.7-21.8 21.8-40.2 37.5-55.9 15.7-16.6 34.9-28.8 55.9-38.4 21-8.7 44.5-13.1 69-13.1 17.5 0 34.9 2.6 51.5 7.9 16.6 5.2 31.4 12.2 45.4 21.8 14 8.7 26.2 20.1 37.5 33.2 10.5 13.1 19.2 27.1 26.2 42.8 1.7 3.5 3.5 7 4.4 9.6l-8.7 14-28.8 46.3H870.3l42.8-69.8c-7.9-7.9-17.5-13.1-27.9-17.5-10.5-4.4-21.8-7-33.2-7-13.1 0-25.3 2.6-36.7 7.9-11.3 5.2-21.8 11.3-29.7 20.1-8.7 8.7-15.7 18.3-20.1 29.7-5.2 11.3-7.9 23.6-7.9 36.7s2.6 25.3 7.9 36.7c4.4 11.3 11.3 21.8 20.1 29.7 7.9 8.7 18.3 15.7 29.7 20.1 11.3 5.2 23.6 7.9 36.7 7.9 19.2 0 37.5-5.2 52.4-16.6 15.7-11.3 27.1-25.3 34.1-42.8h85.5v-.2z"/></svg>