<svg id="Camada_1" xmlns="http://www.w3.org/2000/svg" viewBox="0 0 1037.9 786.6"><style/><path d="M73.3 743.3c-4.8 5.3-11.5 7.9-20.1 7.9-9.3 0-16.5-3.5-21.4-10.6v9.5h-5.5v-73.5h5.5v28.7c4.7-6.9 11.9-10.3 21.5-10.3 8.7 0 15.4 2.7 20.1 8.2 4.5 5.1 6.7 11.8 6.7 20.2 0 8.3-2.3 15-6.8 19.9zm-3.8-36.5c-3.7-4.4-8.9-6.6-15.8-6.6-7.4 0-12.9 2.2-16.7 6.5-3.5 4-5.3 9.7-5.3 16.9 0 6.7 2 12.1 6.1 16.2 4 4.2 9.4 6.2 16 6.2 6.7 0 11.9-2.2 15.7-6.6 3.5-4.1 5.2-9.5 5.2-16.2 0-6.7-1.8-12.2-5.2-16.4zm19.7 18.8c.7 13.7 8 20.6 21.8 20.6 10.5 0 17.4-4.3 20.7-12.9h5.6c-2.1 6.8-5.7 11.6-10.7 14.3-4.4 2.5-9.7 3.7-15.8 3.7-8.9 0-15.7-2.6-20.3-7.7-4.4-4.8-6.6-11.4-6.6-19.8 0-8.3 2.5-15 7.5-20.2 5-5.1 11.7-7.7 20-7.7s14.9 2.3 19.9 7c5 4.7 7.5 10.9 7.5 18.8v3.8l-49.6.1zm22.1-24.6c-6.1 0-11.2 1.7-15.1 5.2-3.9 3.5-6.2 8.2-6.9 14.3h43.3c-.4-6.1-2.5-10.8-6.3-14.3-3.9-3.5-8.9-5.2-15-5.2zm43-2.6v3.5h12v5.2h-12v43.2h-5.5v-43.2H141v-5.2h7.8v-3.5c0-13.7 9.2-20.5 27.5-20.5v5c-14.6 0-22 5.1-22 15.5zm43.4 52.9c-8.6 0-15.4-2.6-20.4-7.7-5-5.1-7.5-11.8-7.5-20 0-8.5 2.6-15.2 7.7-20.2 5.2-5 12-7.5 20.4-7.5s15.2 2.5 20.3 7.5c5.1 5 7.6 11.8 7.6 20.2s-2.6 15.2-7.7 20.2-11.9 7.5-20.4 7.5zm16.7-44.1c-4-4.2-9.5-6.2-16.6-6.2-6.9 0-12.4 2-16.5 6.1-4 4.1-6.1 9.6-6.1 16.5s2 12.3 6.1 16.4c4.1 4.1 9.5 6.1 16.4 6.1 6.9 0 12.3-2 16.4-6.1 4.1-4.1 6.1-9.6 6.1-16.4.1-6.7-1.8-12.2-5.8-16.4zm27.8 2.5c-3.2 5-4.8 11.4-4.8 19.2v21.3h-5.5v-53h5.5v9c1.1-1.6 2.5-3.1 4.1-4.4 4.8-3.8 11.1-5.7 18.9-5.7v5.1c-8.3-.2-14.4 2.7-18.2 8.5zm26.1 15.9c.7 13.7 8 20.6 21.8 20.6 10.5 0 17.4-4.3 20.7-12.9h5.6c-2.1 6.8-5.7 11.6-10.7 14.3-4.4 2.5-9.7 3.7-15.8 3.7-8.9 0-15.7-2.6-20.3-7.7-4.4-4.8-6.6-11.4-6.6-19.8 0-8.3 2.5-15 7.5-20.2 5-5.1 11.7-7.7 20-7.7s14.9 2.3 19.9 7c5 4.7 7.5 10.9 7.5 18.8v3.8l-49.6.1zm22.1-24.6c-6.1 0-11.2 1.7-15.1 5.2-3.9 3.5-6.2 8.2-6.9 14.3h43.3c-.4-6.1-2.5-10.8-6.3-14.3-3.9-3.5-8.9-5.2-15-5.2zm42.7 57.1c-.4 1.2-1.3 1.8-2.7 1.8-1.9 0-2.8-.8-2.8-2.3 0-.2.1-.5.2-.9l4.7-14.3c.4-1.5 1.5-2.1 3.2-1.7 1.4.4 2.2 1.1 2.2 2.3 0 .2-.1.5-.2.8l-4.6 14.3zm102.2-8v-9.5c-4.8 7.2-12.2 10.7-22 10.7-8.4 0-15-2.7-19.8-8.1-4.5-5.1-6.8-11.8-6.8-19.8 0-8.2 2.3-14.9 6.9-20.1 4.8-5.4 11.5-8.1 20.1-8.1 9.7 0 16.8 3.4 21.5 10.3v-28.9h5.5v73.5h-5.4zm-5.5-43.5c-3.9-4.3-9.4-6.4-16.6-6.4-6.6 0-11.9 2.3-15.7 6.8-3.6 4.3-5.4 9.7-5.4 16.3 0 6.7 1.8 12 5.3 16.2 3.8 4.5 9 6.7 15.8 6.7 6.7 0 12.1-2.2 16.1-6.7 4-4.3 6-9.7 6-16.2 0-7.1-1.9-12.6-5.5-16.7zm62.8 43.6v-7.4c-4.3 5.6-10.7 8.5-19.4 8.5-6.8 0-12.2-1.6-16.1-4.9-4.2-3.5-6.3-8.5-6.3-14.9v-34.4h5.5v34.3c0 9.8 5.6 14.8 16.9 14.8 6.5 0 11.4-1.9 14.7-5.6 3.1-3.5 4.7-8.5 4.7-14.8v-28.6h5.5v53h-5.5zm25.4-40.5c-3.2 5-4.8 11.4-4.8 19.2v21.3h-5.5v-53h5.5v9c1.1-1.6 2.5-3.1 4.1-4.4 4.8-3.8 11.1-5.7 18.9-5.7v5.1c-8.4-.2-14.5 2.7-18.2 8.5zm26.7-22.2c-1.2 0-2-.7-2.6-2.2v-7.6c.6-1.4 1.5-2.2 2.6-2.2.9 0 1.8.7 2.9 2v8c-1 1.4-2 2-2.9 2zm-2.6 62.6v-53.8h5.5v53.8h-5.5zm56.5 0v-34.6c0-4.7-1.5-8.4-4.5-11-3-2.4-7-3.6-12.1-3.6-6.1 0-10.8 1.8-14.3 5.4-3.5 3.6-5.2 8.3-5.2 14V750H557v-53h5.5v7.3c4.2-5.6 10.7-8.5 19.5-8.5 6.4 0 11.7 1.5 15.7 4.6 4.4 3.3 6.6 8 6.6 14.1v35.6h-5.7zm39.2 19.4c-6.5 0-11.8-1.3-15.9-3.8-5.1-3-7.8-8.1-8.1-15.3h5.5c.8 9.3 7 14 18.6 14 13.4 0 20.1-5.6 20.1-16.9v-6.9c-4.9 6.4-12 9.5-21.2 9.5-8.1 0-14.5-2.5-19.2-7.5-4.7-5-7-11.5-7-19.4 0-8.1 2.4-14.7 7.2-19.7 4.8-5.1 11.4-7.6 19.8-7.6 9.1 0 15.9 3.3 20.5 9.8v-8.6h5.5v50.5c-.1 14.6-8.7 21.9-25.8 21.9zm-.5-68.5c-6.5 0-11.7 2.2-15.6 6.5-3.8 4.1-5.6 9.3-5.6 15.6 0 6.4 1.7 11.6 5.2 15.5 3.7 4.3 8.8 6.4 15.3 6.4 6.6 0 11.9-2 15.7-6 3.8-4 5.7-9.2 5.7-15.6s-1.9-11.7-5.6-16c-3.8-4.3-8.8-6.4-15.1-6.4zm121.6 38.4c-6.1 8.3-14 12.5-23.7 12.5-6.4 0-12-1.5-16.9-4.4-5.8-3.5-8.7-8.2-8.7-14.3 0-5.5 2.5-10.5 7.5-15.1 3.2-2.9 8.2-6 14.7-9.3-8.3-4.4-12.4-10.3-12.4-17.6 0-4.6 1.9-8.3 5.8-11 3.4-2.4 7.5-3.6 12.3-3.6 5.1 0 9.3 1.2 12.7 3.5 3.8 2.6 5.6 6.4 5.6 11.3 0 6.9-6.9 14.1-20.7 21.4-6.9 3.6-11.4 6.4-13.7 8.5-4.2 3.8-6.3 7.7-6.3 11.9s2.1 7.6 6.3 10.2c3.8 2.3 8.2 3.5 13.1 3.5 9.4 0 16.3-3.9 20.7-11.7 2.5-4.4 3.7-9.5 3.7-15.3h5.5v32.4h-5.5v-12.9zM746.3 684c-2.3-1.5-5.2-2.3-8.5-2.3-3.5 0-6.4.8-8.9 2.4-2.7 1.7-4 4.1-4 7.2 0 6.2 4.1 11.1 12.3 14.6 8.7-4.8 13.1-9.7 13.1-14.6 0-3.1-1.3-5.5-4-7.3zm113.6 66.2v-9.5c-4.8 7.1-12.2 10.6-22 10.6-8.4 0-15-2.7-19.8-8-4.5-5.1-6.8-11.6-6.8-19.5 0-8.2 2.3-14.8 6.9-19.8 4.8-5.4 11.5-8 20.1-8 9.7 0 16.8 3.4 21.5 10.3v-10.1h5.5v54.1h-5.4zm-5.5-42.9c-3.9-4.2-9.4-6.3-16.6-6.3-6.6 0-11.9 2.2-15.8 6.7-3.5 4.2-5.3 9.5-5.3 16.1 0 6.6 1.8 11.9 5.3 15.9 3.8 4.3 9 6.5 15.8 6.5 6.7 0 12.1-2.1 16.1-6.4 4-4.3 6-9.6 6-16.1 0-6.9-1.8-12.4-5.5-16.4zm31.4-8.9v3.5h12v5.2h-12v43.2h-5.5v-43.2h-7.8v-5.2h7.8v-3.5c0-13.7 9.2-20.5 27.5-20.5v5c-14.7 0-22 5.1-22 15.5z"/><path d="M916.7 704.6v45.6h-5.3l-.2-45.6h-10.7v-5.1h10.7v-15.9h5.5v15.9h10.9v5.1h-10.9zm18.1 21c.7 13.7 8 20.6 21.8 20.6 10.5 0 17.4-4.3 20.7-12.9h5.6c-2.1 6.8-5.7 11.6-10.7 14.3-4.4 2.5-9.7 3.7-15.8 3.7-8.9 0-15.7-2.6-20.3-7.7-4.4-4.8-6.6-11.4-6.6-19.8 0-8.3 2.5-15 7.5-20.2 5-5.1 11.7-7.7 20-7.7s14.9 2.3 19.9 7 7.5 10.9 7.5 18.8v3.8l-49.6.1zm22.1-24.6c-6.1 0-11.2 1.7-15.1 5.2-3.9 3.5-6.2 8.2-6.9 14.3h43.3c-.4-6.1-2.5-10.8-6.3-14.3-3.9-3.5-8.9-5.2-15-5.2zm43.1 8.7c-3.2 5-4.8 11.4-4.8 19.2v21.3h-5.5v-53h5.5v9c1.1-1.6 2.5-3.1 4.1-4.4 4.8-3.8 11.1-5.7 18.9-5.7v5.1c-8.4-.2-14.5 2.7-18.2 8.5z"/><path d="M895.4 323.5c37.1-30.9 60.8-77.6 60.8-129.8 0-93.2-75.4-168.7-168.3-168.7s-168.3 75.5-168.3 168.7c0 52.2 23.6 98.8 60.8 129.8-37.1 30.9-60.8 77.6-60.8 129.8 0 93.2 75.4 168.7 168.3 168.7s168.3-75.5 168.3-168.7c0-52.2-23.7-98.9-60.8-129.8zM696.6 193.7c0-50.5 40.9-91.4 91.2-91.4 50.4 0 91.2 40.9 91.2 91.4 0 47.6-36.2 86.6-82.5 91-2.9-.1-5.8-.2-8.7-.2s-5.8.1-8.7.2c-46.3-4.4-82.5-43.4-82.5-91zm91.2 351c-50.4 0-91.2-40.9-91.2-91.4 0-47.6 36.2-86.6 82.5-91 2.9.1 5.8.2 8.7.2s5.8-.1 8.7-.2c46.3 4.4 82.5 43.5 82.5 91 .1 50.4-40.8 91.4-91.2 91.4z" fill-rule="evenodd" clip-rule="evenodd" fill="#adcb4a"/><path d="M246 205.4h79.2v79.4H246zm398.9 77.4L475.4 509.2V282.8H386l-34.5 56.5h45.6v283.4h101.6l237.1-339.9z"/><path d="M246 545.1v.7h-19.4c-11 0-21.3-2.1-30.9-6.3-9.6-4.2-18-10-25.3-17.3-7.3-7.3-13-15.7-17.2-25.3-4.2-9.6-6.3-19.9-6.3-30.9V204.9h-34.5l.5-.5H56.6l-34 57h45.2v204.5c0 22.1 4.1 42.8 12.4 62.1 8.3 19.3 19.6 36.2 34 50.6 14.4 14.4 31.3 25.8 50.5 34.1 19.3 8.3 39.9 12.4 61.9 12.4h98.6v-316H246v236zm686.1-57.8c-6.8 16.6-17.7 30.2-32.8 40.9-15.1 10.7-32.1 16.1-51.3 16.1-12.6 0-24.5-2.4-35.5-7.1-11-4.7-20.6-11.2-28.9-19.5-8.3-8.3-14.7-17.9-19.4-29-4.7-11-7-22.9-7-35.5 0-12.7 2.3-24.5 7-35.5s11.2-20.7 19.4-29c8.3-8.3 17.9-14.8 28.9-19.5 11-4.7 22.8-7.1 35.5-7.1 11.3 0 22.1 2 32.3 6.1 10.2 4.1 19.4 9.8 27.4 17.3L866 453.2h105.4l28.2-45.3 7.8-13.1c-1-2.9-2.3-6.2-3.9-9.7-6.5-14.9-15-28.6-25.5-41.1s-22.5-23.3-36-32.4c-13.4-9.1-28.1-16.2-44-21.2-15.9-5-32.6-7.5-50-7.5-23.6 0-45.8 4.5-66.3 13.4-20.6 8.9-38.5 21.1-53.9 36.5-15.4 15.4-27.5 33.4-36.4 54-8.9 20.6-13.4 42.8-13.4 66.5 0 23.7 4.5 45.9 13.4 66.5s21.1 38.6 36.4 54c15.4 15.4 33.4 27.6 53.9 36.5 20.6 8.9 42.7 13.4 66.3 13.4 20.7 0 40.3-3.4 58.8-10.2 18.5-6.8 35-16.3 49.6-28.5 14.6-12.2 27-26.6 37.2-43.3 10.2-16.7 17.2-34.8 21.1-54.3h-82.6z"/></svg>