<svg xmlns="http://www.w3.org/2000/svg" viewBox="0 0 1000 1000"><path fill="#fff" d="M845.6 469.3L349.5 182.8c-5.4-3.1-11.5-4.8-17.7-4.8-19.6 0-35.5 15.9-35.5 35.5v572.9c0 19.6 15.9 35.5 35.5 35.5 6.1 0 12.3-1.7 17.7-4.8l496.1-286.4c11.1-6.4 17.7-17.9 17.7-30.7.1-12.8-6.6-24.3-17.7-30.7zm-8.2 47.1L341.2 802.9c-3 1.7-6.1 2.6-9.4 2.6-9.1 0-19-7.3-19-19v-573c0-11.7 9.9-19 19-19 3.3 0 6.5.9 9.4 2.6l496.1 286.5c5.9 3.4 9.5 9.6 9.5 16.4.1 6.9-3.5 13-9.4 16.4zM500 10C229.4 10 10 229.4 10 500s219.4 490 490 490 490-219.4 490-490S770.6 10 500 10zm0 963.5c-261.5 0-473.5-212-473.5-473.5S238.5 26.5 500 26.5s473.5 212 473.5 473.5-212 473.5-473.5 473.5z"/></svg>