<svg xmlns="http://www.w3.org/2000/svg" viewBox="0 0 100 125"><path d="M21.9 94.3c-.5 0-1-.4-1-1V21.9c0-.5.4-1 1-1 .5 0 1 .4 1 1v71.4c0 .5-.5 1-1 1z"/><path d="M41.5 94.8h-34c-.5 0-.9-.4-.9-.9s.4-.9.9-.9h34c.5 0 .9.4.9.9s-.4.9-.9.9z"/><path d="M9.4 94.3v-1.1c5.8 0 10.5-4.7 10.5-10.5V20.3H21v62.5c-.1 6.3-5.3 11.5-11.6 11.5z"/><path d="M22.7 84.1h-2.6c-.6 0-1.1-.5-1.1-1.1 0-.6.5-1.1 1.1-1.1h2.6c.6 0 1.1.5 1.1 1.1 0 .6-.5 1.1-1.1 1.1zm2.4-65.7c-1-2.7.1-5.6 2.4-6.7-.1 0-.2 0-.2.1l-13.5 5c-2.5.9-3.7 4-2.7 6.8S15 28 17.5 27L31 22c.1 0 .2-.1.4-.2-2.5 1-5.3-.6-6.3-3.4z"/><path d="M28 12c-.1 0-.2.1-.4.2-.1 0-.1.1-.2.1-2 1.1-2.8 3.7-1.9 6.1.9 2.4 3.2 3.8 5.5 3.4h.2c.1 0 .2-.1.4-.1 2.4-.9 3.5-3.7 2.5-6.3-1.1-2.9-3.7-4.3-6.1-3.4zm49.1 82.3c.5 0 1-.4 1-1V21.9c0-.5-.4-1-1-1-.5 0-1 .4-1 1v71.4c.1.5.5 1 1 1z"/><path d="M57.5 94.8h34c.5 0 .9-.4.9-.9s-.4-.9-.9-.9h-34c-.5 0-.9.4-.9.9.1.5.4.9.9.9z"/><path d="M89.6 94.3v-1.1c-5.8 0-10.5-4.7-10.5-10.5V20.3H78v62.5c.1 6.3 5.3 11.5 11.6 11.5z"/><path d="M76.4 84.1H79c.6 0 1.1-.5 1.1-1.1 0-.6-.5-1.1-1.1-1.1h-2.6c-.6 0-1.1.5-1.1 1.1-.1.6.4 1.1 1.1 1.1zm-2.5-65.7c1-2.7-.1-5.6-2.4-6.7.1 0 .2 0 .2.1l13.5 5c2.5.9 3.7 4 2.7 6.8S84 28 81.5 27L68 22c-.1 0-.2-.1-.4-.2 2.5 1 5.3-.6 6.3-3.4z"/><path d="M71 12c.1 0 .2.1.4.2.1 0 .1.1.2.1 2 1.1 2.8 3.7 1.9 6.1-.9 2.4-3.2 3.8-5.5 3.4h-.2c-.1 0-.2-.1-.4-.1-2.4-.9-3.5-3.7-2.5-6.3 1.1-2.9 3.8-4.3 6.1-3.4zM32.4 56.4c.3 0 .5-.2.5-.5s-.2-.5-.5-.5h-.1l3.1-2.9-.7-.7-4.4 4.1 4.4 4.1.7-.7-3-2.9zm16.5-1h-2.1c-.3 0-.5.2-.5.5s.2.5.5.5h2.1c.3 0 .5-.2.5-.5s-.2-.5-.5-.5zm-4.1 0h-2.1c-.3 0-.5.2-.5.5s.2.5.5.5h2.1c.3 0 .5-.2.5-.5s-.2-.5-.5-.5zm-4.1 0h-2.1c-.3 0-.5.2-.5.5s.2.5.5.5h2.1c.3 0 .5-.2.5-.5s-.3-.5-.5-.5z"/><path d="M36.5 55.4h-2.1c-.3 0-.5.2-.5.5s.2.5.5.5h2.1c.3 0 .5-.2.5-.5s-.2-.5-.5-.5zm29.4.5c0-.3-.2-.5-.5-.5h-2.1c-.3 0-.5.2-.5.5s.2.5.5.5h2.1c.3 0 .5-.2.5-.5zm-4.6-.5h-2.1c-.3 0-.5.2-.5.5s.2.5.5.5h2.1c.3 0 .5-.2.5-.5s-.2-.5-.5-.5zm-4.1 0h-2.1c-.3 0-.5.2-.5.5s.2.5.5.5h2.1c.3 0 .5-.2.5-.5s-.2-.5-.5-.5zm-4.1 0H51c-.3 0-.5.2-.5.5s.2.5.5.5h2.1c.3 0 .5-.2.5-.5s-.3-.5-.5-.5z"/><path d="M65.2 51.8l-.7.7 3.1 2.9h-.1c-.3 0-.5.2-.5.5s.2.5.5.5h.1l-3.1 2.9.7.7 4.4-4.1-4.4-4.1z"/></svg>