<svg xmlns="http://www.w3.org/2000/svg" viewBox="0 0 100 125"><path d="M51.9 94.3c-.5 0-1-.4-1-1V21.9c0-.5.4-1 1-1 .5 0 1 .4 1 1v71.4c0 .5-.5 1-1 1z"/><path d="M71.5 94.8h-34c-.5 0-.9-.4-.9-.9s.4-.9.9-.9h34c.5 0 .9.4.9.9s-.4.9-.9.9z"/><path d="M39.4 94.3v-1.1c5.8 0 10.5-4.7 10.5-10.5V20.3H51v62.5c-.1 6.3-5.3 11.5-11.6 11.5z"/><path d="M52.7 84.1h-2.6c-.6 0-1.1-.5-1.1-1.1 0-.6.5-1.1 1.1-1.1h2.6c.6 0 1.1.5 1.1 1.1 0 .6-.5 1.1-1.1 1.1zm2.4-65.7c-1-2.7.1-5.6 2.4-6.7-.1 0-.2 0-.2.1l-13.5 5c-2.5.9-3.7 4-2.7 6.8S45 28 47.5 27L61 22c.1 0 .2-.1.4-.2-2.5 1-5.3-.6-6.3-3.4z"/><path d="M58 12c-.1 0-.2.1-.4.2-.1 0-.1.1-.2.1-2 1.1-2.8 3.7-1.9 6.1.9 2.4 3.2 3.8 5.5 3.4h.2c.1 0 .2-.1.4-.1 2.4-.9 3.5-3.7 2.5-6.3S60.4 11.1 58 12z"/><text y="115" font-size="5" font-weight="bold" font-family="'Helvetica Neue', Helvetica, Arial-Unicode, Arial, Sans-serif">Created by Laura Hernández</text><text y="120" font-size="5" font-weight="bold" font-family="'Helvetica Neue', Helvetica, Arial-Unicode, Arial, Sans-serif">from the Noun Project</text></svg>