<svg xmlns="http://www.w3.org/2000/svg" viewBox="0 0 512 512"><style/><path d="M256 3.7C120.1 3.7 9.5 117.3 9.5 257c0 139.7 110.6 253.3 246.5 253.3S502.5 396.7 502.5 257C502.5 117.3 391.9 3.7 256 3.7zm14.8 475.6v-39.9h-29.6v39.9C133.4 471.8 46.9 383 39.6 272.2h38.9v-30.4H39.6C46.9 131 133.4 42.2 241.2 34.7v39.9h29.6V34.7c107.9 7.5 194.3 96.3 201.6 207.1h-38.9v30.4h38.9c-7.3 110.8-93.8 199.6-201.6 207.1z"/><path d="M152.6 305.2c15.3-10.4 32.2-16.7 48.6-22.2 2.4-.8 4.7-1.9 7.1-2.7l.5-.3c3.5-1.3 6.7-2.5 9.4-4 .1-.3.3-.8.5-1.6-13.5-20.2-22.7-51.5-22.7-78.3 0-22.7 6.9-39.6 20.1-49.8-5.7-3-12.5-4.1-19.9-4.1-19.6 0-35.5 8-35.5 36.9 0 19.2 7 42.7 17.5 56.4-.1 1.1-.2 2.2-.4 3.2-.6 2.9-1.6 6.2-4.3 7.9-3 1.8-6.3 3-9.6 4.2-13.6 4.7-27.6 8.8-39.7 17.1-6.3 4.3-10.5 12.7-12.9 19.9-2.4 7.5-3.4 14.8-3.2 25h37c2.4-5.1 4.9-5.8 7.5-7.6zm235.2-37.1c-12.1-8.2-26.1-12.5-39.7-17.2-3.3-1.2-6.6-2.4-9.6-4.2-2.7-1.6-3.7-5-4.3-7.9-.3-1.6-.4-3.1-.5-4.7 9.8-13.9 16.4-36.4 16.4-55 0-28.9-15.9-37-35.5-37-7.5 0-14.4 1.2-20.1 4.2 13 10.3 19.9 27.1 19.9 49.7 0 26.1-8.5 56.1-21.5 76.5.1.2.1.4.1.7.3 1.6.6 2.4.8 2.8 2.8 1.6 6.2 2.9 10 4.3l5.7 2c16.8 5.7 34.2 12.7 49.8 23.4 2.6 1.7 4.9 2 7.2 7.1h37.3c.1-10.1-.8-17.5-3.2-25-2.3-7.2-6.5-15.4-12.8-19.7z"/><path d="M352.9 314.9c-16.1-11-34.8-16.7-52.9-23-4.4-1.6-8.8-3.2-12.8-5.7-3.6-2.2-4.9-6.6-5.7-10.5-.4-2.1-.6-4.2-.7-6.3 13.1-18.5 21.8-48.6 21.8-73.3 0-38.5-21.2-49.3-47.3-49.3-26.1 0-47.3 10.7-47.3 49.3 0 25.6 9.3 56.9 23.3 75.2-.1 1.4-.3 2.9-.5 4.3-.8 3.9-2.2 8.3-5.7 10.5-4 2.4-8.4 4-12.8 5.5-18.1 6.3-36.8 11.8-52.9 22.8-8.4 5.6-14 16.6-17.2 26.2-3.2 10-4.5 22.8-4.3 32.9h236.7c.2-10.1-1.1-23-4.3-32.9-3.4-9.7-9.1-20.1-17.4-25.7z"/></svg>