<svg xmlns="http://www.w3.org/2000/svg" viewBox="0 0 512 512"><path d="M360.8 56.1c-4.1 0-7.5 3.4-7.5 7.7 0 4.2 3.4 7.7 7.5 7.7s7.5-3.4 7.5-7.7c0-4.3-3.4-7.7-7.5-7.7zm3.7 407.5h-217c-2.1 0-3.7 1.7-3.7 3.8 0 2.1 1.7 3.8 3.7 3.8h217c2.1 0 3.7-1.7 3.7-3.8.1-2.1-1.6-3.8-3.7-3.8zM256 363.7c-20.6 0-37.4-17.2-37.4-38.4s16.8-38.4 37.4-38.4c20.6 0 37.4 17.2 37.4 38.4 0 21.1-16.8 38.4-37.4 38.4zm0-84.6c-24.8 0-44.9 20.7-44.9 46.1 0 25.5 20.1 46.1 44.9 46.1 24.8 0 44.9-20.7 44.9-46.1 0-25.5-20.1-46.1-44.9-46.1zm0-169.2c8.3 0 15 6.9 15 15.4s-6.7 15.4-15 15.4-15-6.9-15-15.4 6.7-15.4 15-15.4zm0 38.4c12.4 0 22.5-10.3 22.5-23.1 0-12.7-10-23.1-22.5-23.1-12.4 0-22.5 10.3-22.5 23.1s10.1 23.1 22.5 23.1zm0 276.9c53.6 0 97.3-44.9 97.3-100s-43.6-100-97.3-100-97.3 44.8-97.3 100c0 55.1 43.7 100 97.3 100zm0-215.3c-62 0-112.3 51.6-112.3 115.3 0 63.7 50.3 115.3 112.3 115.3s112.3-51.6 112.3-115.3c0-63.7-50.3-115.3-112.3-115.3zm0-138.4c-28.9 0-52.4 24.1-52.4 53.8 0 29.7 23.5 53.8 52.4 53.8s52.4-24.1 52.4-53.8c0-29.7-23.5-53.8-52.4-53.8zm0 123c37.2 0 67.4-31 67.4-69.2S293.2 56.1 256 56.1s-67.4 31-67.4 69.2 30.2 69.2 67.4 69.2zm142.2 269.1c0 12.7-10.1 23.1-22.5 23.1H136.3c-12.4 0-22.5-10.3-22.5-23.1V48.4c0-12.7 10.1-23.1 22.5-23.1h239.5c12.4 0 22.5 10.4 22.5 23.1v415.2h-.1zM375.7 9.9c20.6 0 37.4 17.3 37.4 38.4v415.2c0 21.1-16.8 38.4-37.4 38.4H136.3c-20.6 0-37.4-17.3-37.4-38.4V48.4c0-21.1 16.8-38.4 37.4-38.4h239.4z" fill-rule="evenodd" clip-rule="evenodd" fill="#fff"/></svg>