<svg xmlns="http://www.w3.org/2000/svg" viewBox="0 0 512 512"><path class="svg-fill" d="M445.7 158.3h-26.5v-44.7c0-7.6-6-13.7-13.3-13.7H106.2c-7.4 0-13.3 6.1-13.3 13.7v44.7H66.3C59 158.3 53 164.5 53 172v226.4c0 7.6 6 13.7 13.3 13.7h148.3c6.7 0 12.4-5.1 13.2-12l7.4-61.5c1.3-10.7 10.2-18.8 20.7-18.8s19.4 8.1 20.7 18.8l7.4 61.5c.8 6.9 6.5 12 13.2 12h148.3c7.4 0 13.3-6.1 13.3-13.7V172c.2-7.5-5.8-13.7-13.1-13.7zm-326.2-31h272.9v31H119.5v-31zm312.8 257.4H309.1l-6-49.5c-2.9-24.4-23.2-42.8-47.1-42.8-23.9 0-44.2 18.4-47.2 42.8l-6 49.5H79.7v-199h352.7v199z" fill-rule="evenodd" clip-rule="evenodd"/><path class="svg-fill" d="M156.6 200c-35.3 0-64 29.5-64 65.7s28.7 65.7 64 65.7 64-29.5 64-65.7c-.1-36.2-28.8-65.7-64-65.7zm0 104.1c-20.6 0-37.3-17.2-37.3-38.3 0-21.1 16.7-38.3 37.3-38.3 20.6 0 37.3 17.2 37.3 38.3 0 21.1-16.8 38.3-37.3 38.3zM355.4 200c-35.3 0-64 29.5-64 65.7s28.7 65.7 64 65.7 64-29.5 64-65.7-28.7-65.7-64-65.7zm0 104.1c-20.6 0-37.3-17.2-37.3-38.3 0-21.1 16.7-38.3 37.3-38.3 20.6 0 37.3 17.2 37.3 38.3.1 21.1-16.7 38.3-37.3 38.3z" fill-rule="evenodd" clip-rule="evenodd"/></svg>