<svg xmlns="http://www.w3.org/2000/svg" viewBox="0 0 2839 410"><defs><linearGradient id="a" y1="50%" y2="50%"><stop offset="0" stop-color="#101010"/><stop offset=".5" stop-color="#A1CD3A"/><stop offset="1" stop-color="#101010"/></linearGradient></defs><path d="M2634.5.5C2521.56.5 2430 92.06 2430 205a200.5 200.5 0 0 1-401 0v-.5C2029 91.56 1937.44 0 1824.5 0S1620 91.56 1620 204.5a200.5 200.5 0 0 1-401 0C1219 91.56 1127.44 0 1014.5 0S810 91.56 810 204.5v.5a200.5 200.5 0 0 1-401 0C409 92.06 317.44.5 204.5.5S0 92.06 0 205a2 2 0 0 0 2 2v-2h2a200.5 200.5 0 0 1 401 0c0 112.94 91.56 204.5 204.5 204.5S814 317.94 814 205a200.5 200.5 0 1 1 401 0c.27 112.71 91.72 204 204.49 204s204.23-91.29 204.51-204a200.5 200.5 0 0 1 401 0c0 112.94 91.56 204.5 204.5 204.5S2434 317.94 2434 205a200.5 200.5 0 1 1 401 0h2v2a2 2 0 0 0 2-2C2839 92.06 2747.44.5 2634.5.5z" style="transition:.3s ease-in-out" fill="url(#a)"/></svg>